<svg xmlns="http://www.w3.org/2000/svg" xmlns:xlink="http://www.w3.org/1999/xlink" width="1920" zoomAndPan="magnify" viewBox="0 0 1440 809.999993" height="1080" preserveAspectRatio="xMidYMid meet" version="1.0"><defs><g/><clipPath id="93f7194124"><path d="M 582.171875 271.910156 L 825.171875 271.910156 L 825.171875 362.242188 L 582.171875 362.242188 Z M 582.171875 271.910156 " clip-rule="nonzero"/></clipPath><clipPath id="e56e32a7ee"><path d="M 582.171875 447.757812 L 825.171875 447.757812 L 825.171875 538.089844 L 582.171875 538.089844 Z M 582.171875 447.757812 " clip-rule="nonzero"/></clipPath><clipPath id="9df3b94810"><path d="M 864.175781 447.757812 L 1107.175781 447.757812 L 1107.175781 538.089844 L 864.175781 538.089844 Z M 864.175781 447.757812 " clip-rule="nonzero"/></clipPath><clipPath id="70f34f5393"><path d="M 1146.175781 447.757812 L 1389.175781 447.757812 L 1389.175781 538.089844 L 1146.175781 538.089844 Z M 1146.175781 447.757812 " clip-rule="nonzero"/></clipPath></defs><g clip-path="url(#93f7194124)"><path fill="#090920" d="M 582.171875 271.910156 L 825.171875 271.910156 L 825.171875 363.035156 L 582.171875 363.035156 Z M 582.171875 271.910156 " fill-opacity="1" fill-rule="nonzero"/></g><g fill="#ffffff" fill-opacity="1"><g transform="translate(613.964616, 331.161771)"><g><path d="M 24.03125 -19.578125 L 24.03125 -17.03125 L 19.421875 -17.03125 L 18.375 -10.8125 L 22.953125 -10.8125 L 22.953125 -8.28125 L 17.9375 -8.28125 L 16.546875 0 L 13.734375 0 L 15.125 -8.28125 L 8.734375 -8.28125 L 7.34375 0 L 4.53125 0 L 5.921875 -8.28125 L 1.75 -8.28125 L 1.75 -10.8125 L 6.359375 -10.8125 L 7.40625 -17.03125 L 2.8125 -17.03125 L 2.8125 -19.578125 L 7.84375 -19.578125 L 9.234375 -27.84375 L 12.046875 -27.84375 L 10.671875 -19.578125 L 17.03125 -19.578125 L 18.421875 -27.84375 L 21.25 -27.84375 L 19.859375 -19.578125 Z M 9.171875 -10.8125 L 15.5625 -10.8125 L 16.59375 -17.03125 L 10.21875 -17.03125 Z M 9.171875 -10.8125 "/></g></g></g><g fill="#ffffff" fill-opacity="1"><g transform="translate(639.741047, 331.161771)"><g><path d="M 13.6875 0.40625 C 11.644531 0.40625 9.8125 -0.0820312 8.1875 -1.0625 C 6.5625 -2.050781 5.265625 -3.613281 4.296875 -5.75 C 3.335938 -7.894531 2.859375 -10.617188 2.859375 -13.921875 C 2.859375 -17.222656 3.335938 -19.941406 4.296875 -22.078125 C 5.265625 -24.222656 6.5625 -25.785156 8.1875 -26.765625 C 9.8125 -27.742188 11.644531 -28.234375 13.6875 -28.234375 C 15.738281 -28.234375 17.578125 -27.742188 19.203125 -26.765625 C 20.828125 -25.785156 22.117188 -24.222656 23.078125 -22.078125 C 24.035156 -19.941406 24.515625 -17.222656 24.515625 -13.921875 C 24.515625 -10.617188 24.035156 -7.894531 23.078125 -5.75 C 22.117188 -3.613281 20.828125 -2.050781 19.203125 -1.0625 C 17.578125 -0.0820312 15.738281 0.40625 13.6875 0.40625 Z M 13.6875 -2.625 C 16.113281 -2.625 17.953125 -3.492188 19.203125 -5.234375 C 20.453125 -6.984375 21.078125 -9.878906 21.078125 -13.921875 C 21.078125 -17.953125 20.453125 -20.84375 19.203125 -22.59375 C 17.953125 -24.34375 16.113281 -25.21875 13.6875 -25.21875 C 12.09375 -25.21875 10.75 -24.847656 9.65625 -24.109375 C 8.5625 -23.367188 7.722656 -22.164062 7.140625 -20.5 C 6.566406 -18.84375 6.28125 -16.648438 6.28125 -13.921875 C 6.28125 -11.191406 6.566406 -8.992188 7.140625 -7.328125 C 7.722656 -5.671875 8.5625 -4.472656 9.65625 -3.734375 C 10.75 -2.992188 12.09375 -2.625 13.6875 -2.625 Z M 13.6875 -2.625 "/></g></g></g><g fill="#ffffff" fill-opacity="1"><g transform="translate(667.116606, 331.161771)"><g><path d="M 11.765625 0.40625 C 9.359375 0.40625 7.398438 -0.140625 5.890625 -1.234375 C 4.390625 -2.335938 3.4375 -3.847656 3.03125 -5.765625 L 5.453125 -6.875 L 5.890625 -6.796875 C 6.328125 -5.390625 7.003906 -4.328125 7.921875 -3.609375 C 8.847656 -2.898438 10.128906 -2.546875 11.765625 -2.546875 C 14.078125 -2.546875 15.84375 -3.507812 17.0625 -5.4375 C 18.28125 -7.375 18.890625 -10.359375 18.890625 -14.390625 L 18.484375 -14.515625 C 17.710938 -12.921875 16.726562 -11.734375 15.53125 -10.953125 C 14.34375 -10.171875 12.84375 -9.78125 11.03125 -9.78125 C 9.289062 -9.78125 7.773438 -10.15625 6.484375 -10.90625 C 5.191406 -11.664062 4.195312 -12.738281 3.5 -14.125 C 2.8125 -15.507812 2.46875 -17.125 2.46875 -18.96875 C 2.46875 -20.8125 2.847656 -22.429688 3.609375 -23.828125 C 4.378906 -25.234375 5.460938 -26.316406 6.859375 -27.078125 C 8.265625 -27.847656 9.898438 -28.234375 11.765625 -28.234375 C 15.023438 -28.234375 17.578125 -27.132812 19.421875 -24.9375 C 21.273438 -22.738281 22.203125 -19.175781 22.203125 -14.25 C 22.203125 -10.914062 21.765625 -8.15625 20.890625 -5.96875 C 20.015625 -3.789062 18.796875 -2.179688 17.234375 -1.140625 C 15.679688 -0.109375 13.859375 0.40625 11.765625 0.40625 Z M 11.765625 -12.640625 C 13.023438 -12.640625 14.117188 -12.882812 15.046875 -13.375 C 15.972656 -13.875 16.6875 -14.597656 17.1875 -15.546875 C 17.6875 -16.503906 17.9375 -17.644531 17.9375 -18.96875 C 17.9375 -20.289062 17.6875 -21.425781 17.1875 -22.375 C 16.6875 -23.320312 15.972656 -24.046875 15.046875 -24.546875 C 14.117188 -25.054688 13.023438 -25.3125 11.765625 -25.3125 C 9.921875 -25.3125 8.476562 -24.765625 7.4375 -23.671875 C 6.40625 -22.585938 5.890625 -21.019531 5.890625 -18.96875 C 5.890625 -16.90625 6.40625 -15.332031 7.4375 -14.25 C 8.476562 -13.175781 9.921875 -12.640625 11.765625 -12.640625 Z M 11.765625 -12.640625 "/></g></g></g><g fill="#ffffff" fill-opacity="1"><g transform="translate(692.169622, 331.161771)"><g><path d="M 13.6875 0.40625 C 11.644531 0.40625 9.8125 -0.0820312 8.1875 -1.0625 C 6.5625 -2.050781 5.265625 -3.613281 4.296875 -5.75 C 3.335938 -7.894531 2.859375 -10.617188 2.859375 -13.921875 C 2.859375 -17.222656 3.335938 -19.941406 4.296875 -22.078125 C 5.265625 -24.222656 6.5625 -25.785156 8.1875 -26.765625 C 9.8125 -27.742188 11.644531 -28.234375 13.6875 -28.234375 C 15.738281 -28.234375 17.578125 -27.742188 19.203125 -26.765625 C 20.828125 -25.785156 22.117188 -24.222656 23.078125 -22.078125 C 24.035156 -19.941406 24.515625 -17.222656 24.515625 -13.921875 C 24.515625 -10.617188 24.035156 -7.894531 23.078125 -5.75 C 22.117188 -3.613281 20.828125 -2.050781 19.203125 -1.0625 C 17.578125 -0.0820312 15.738281 0.40625 13.6875 0.40625 Z M 13.6875 -2.625 C 16.113281 -2.625 17.953125 -3.492188 19.203125 -5.234375 C 20.453125 -6.984375 21.078125 -9.878906 21.078125 -13.921875 C 21.078125 -17.953125 20.453125 -20.84375 19.203125 -22.59375 C 17.953125 -24.34375 16.113281 -25.21875 13.6875 -25.21875 C 12.09375 -25.21875 10.75 -24.847656 9.65625 -24.109375 C 8.5625 -23.367188 7.722656 -22.164062 7.140625 -20.5 C 6.566406 -18.84375 6.28125 -16.648438 6.28125 -13.921875 C 6.28125 -11.191406 6.566406 -8.992188 7.140625 -7.328125 C 7.722656 -5.671875 8.5625 -4.472656 9.65625 -3.734375 C 10.75 -2.992188 12.09375 -2.625 13.6875 -2.625 Z M 13.6875 -2.625 "/></g></g></g><g fill="#ffffff" fill-opacity="1"><g transform="translate(719.545181, 331.161771)"><g><path d="M 11.765625 0.40625 C 9.359375 0.40625 7.398438 -0.140625 5.890625 -1.234375 C 4.390625 -2.335938 3.4375 -3.847656 3.03125 -5.765625 L 5.453125 -6.875 L 5.890625 -6.796875 C 6.328125 -5.390625 7.003906 -4.328125 7.921875 -3.609375 C 8.847656 -2.898438 10.128906 -2.546875 11.765625 -2.546875 C 14.078125 -2.546875 15.84375 -3.507812 17.0625 -5.4375 C 18.28125 -7.375 18.890625 -10.359375 18.890625 -14.390625 L 18.484375 -14.515625 C 17.710938 -12.921875 16.726562 -11.734375 15.53125 -10.953125 C 14.34375 -10.171875 12.84375 -9.78125 11.03125 -9.78125 C 9.289062 -9.78125 7.773438 -10.15625 6.484375 -10.90625 C 5.191406 -11.664062 4.195312 -12.738281 3.5 -14.125 C 2.8125 -15.507812 2.46875 -17.125 2.46875 -18.96875 C 2.46875 -20.8125 2.847656 -22.429688 3.609375 -23.828125 C 4.378906 -25.234375 5.460938 -26.316406 6.859375 -27.078125 C 8.265625 -27.847656 9.898438 -28.234375 11.765625 -28.234375 C 15.023438 -28.234375 17.578125 -27.132812 19.421875 -24.9375 C 21.273438 -22.738281 22.203125 -19.175781 22.203125 -14.25 C 22.203125 -10.914062 21.765625 -8.15625 20.890625 -5.96875 C 20.015625 -3.789062 18.796875 -2.179688 17.234375 -1.140625 C 15.679688 -0.109375 13.859375 0.40625 11.765625 0.40625 Z M 11.765625 -12.640625 C 13.023438 -12.640625 14.117188 -12.882812 15.046875 -13.375 C 15.972656 -13.875 16.6875 -14.597656 17.1875 -15.546875 C 17.6875 -16.503906 17.9375 -17.644531 17.9375 -18.96875 C 17.9375 -20.289062 17.6875 -21.425781 17.1875 -22.375 C 16.6875 -23.320312 15.972656 -24.046875 15.046875 -24.546875 C 14.117188 -25.054688 13.023438 -25.3125 11.765625 -25.3125 C 9.921875 -25.3125 8.476562 -24.765625 7.4375 -23.671875 C 6.40625 -22.585938 5.890625 -21.019531 5.890625 -18.96875 C 5.890625 -16.90625 6.40625 -15.332031 7.4375 -14.25 C 8.476562 -13.175781 9.921875 -12.640625 11.765625 -12.640625 Z M 11.765625 -12.640625 "/></g></g></g><g fill="#ffffff" fill-opacity="1"><g transform="translate(744.598197, 331.161771)"><g><path d="M 1.671875 -1.28125 C 1.671875 -2.8125 1.835938 -4.046875 2.171875 -4.984375 C 2.515625 -5.929688 3.09375 -6.8125 3.90625 -7.625 C 4.71875 -8.4375 6.007812 -9.488281 7.78125 -10.78125 L 10.859375 -13 C 11.984375 -13.832031 12.898438 -14.597656 13.609375 -15.296875 C 14.328125 -15.992188 14.890625 -16.75 15.296875 -17.5625 C 15.710938 -18.382812 15.921875 -19.300781 15.921875 -20.3125 C 15.921875 -21.96875 15.484375 -23.210938 14.609375 -24.046875 C 13.734375 -24.890625 12.363281 -25.3125 10.5 -25.3125 C 9.019531 -25.3125 7.707031 -24.96875 6.5625 -24.28125 C 5.425781 -23.59375 4.515625 -22.617188 3.828125 -21.359375 L 3.390625 -21.296875 L 1.421875 -23.34375 C 2.367188 -24.863281 3.601562 -26.054688 5.125 -26.921875 C 6.65625 -27.796875 8.445312 -28.234375 10.5 -28.234375 C 12.476562 -28.234375 14.117188 -27.894531 15.421875 -27.21875 C 16.734375 -26.550781 17.695312 -25.625 18.3125 -24.4375 C 18.9375 -23.25 19.25 -21.875 19.25 -20.3125 C 19.25 -19.070312 18.988281 -17.910156 18.46875 -16.828125 C 17.945312 -15.753906 17.207031 -14.738281 16.25 -13.78125 C 15.300781 -12.832031 14.113281 -11.832031 12.6875 -10.78125 L 9.578125 -8.515625 C 8.421875 -7.660156 7.53125 -6.9375 6.90625 -6.34375 C 6.289062 -5.75 5.835938 -5.164062 5.546875 -4.59375 C 5.265625 -4.03125 5.125 -3.398438 5.125 -2.703125 L 19.25 -2.703125 L 19.25 0 L 1.671875 0 Z M 1.671875 -1.28125 "/></g></g></g><g fill="#ffffff" fill-opacity="1"><g transform="translate(765.996061, 331.161771)"><g><path d="M 13.6875 0.40625 C 11.644531 0.40625 9.8125 -0.0820312 8.1875 -1.0625 C 6.5625 -2.050781 5.265625 -3.613281 4.296875 -5.75 C 3.335938 -7.894531 2.859375 -10.617188 2.859375 -13.921875 C 2.859375 -17.222656 3.335938 -19.941406 4.296875 -22.078125 C 5.265625 -24.222656 6.5625 -25.785156 8.1875 -26.765625 C 9.8125 -27.742188 11.644531 -28.234375 13.6875 -28.234375 C 15.738281 -28.234375 17.578125 -27.742188 19.203125 -26.765625 C 20.828125 -25.785156 22.117188 -24.222656 23.078125 -22.078125 C 24.035156 -19.941406 24.515625 -17.222656 24.515625 -13.921875 C 24.515625 -10.617188 24.035156 -7.894531 23.078125 -5.75 C 22.117188 -3.613281 20.828125 -2.050781 19.203125 -1.0625 C 17.578125 -0.0820312 15.738281 0.40625 13.6875 0.40625 Z M 13.6875 -2.625 C 16.113281 -2.625 17.953125 -3.492188 19.203125 -5.234375 C 20.453125 -6.984375 21.078125 -9.878906 21.078125 -13.921875 C 21.078125 -17.953125 20.453125 -20.84375 19.203125 -22.59375 C 17.953125 -24.34375 16.113281 -25.21875 13.6875 -25.21875 C 12.09375 -25.21875 10.75 -24.847656 9.65625 -24.109375 C 8.5625 -23.367188 7.722656 -22.164062 7.140625 -20.5 C 6.566406 -18.84375 6.28125 -16.648438 6.28125 -13.921875 C 6.28125 -11.191406 6.566406 -8.992188 7.140625 -7.328125 C 7.722656 -5.671875 8.5625 -4.472656 9.65625 -3.734375 C 10.75 -2.992188 12.09375 -2.625 13.6875 -2.625 Z M 13.6875 -2.625 "/></g></g></g><g fill="#000000" fill-opacity="1"><g transform="translate(50.825353, 336.204495)"><g><path d="M 4.828125 0 L 4.828125 -37.125 L 20.671875 -37.125 C 22.953125 -37.125 24.882812 -36.765625 26.46875 -36.046875 C 28.050781 -35.328125 29.25 -34.300781 30.0625 -32.96875 C 30.875 -31.644531 31.28125 -30.078125 31.28125 -28.265625 C 31.28125 -26.617188 30.878906 -25.171875 30.078125 -23.921875 C 29.285156 -22.671875 28.144531 -21.660156 26.65625 -20.890625 L 26.65625 -20.359375 C 29 -19.753906 30.800781 -18.644531 32.0625 -17.03125 C 33.332031 -15.425781 33.96875 -13.457031 33.96875 -11.125 C 33.96875 -7.570312 32.894531 -4.828125 30.75 -2.890625 C 28.613281 -0.960938 25.441406 0 21.234375 0 Z M 19.140625 -22.3125 C 22.566406 -22.3125 24.28125 -23.851562 24.28125 -26.9375 C 24.28125 -28.507812 23.851562 -29.679688 23 -30.453125 C 22.15625 -31.222656 20.867188 -31.609375 19.140625 -31.609375 L 12.15625 -31.609375 L 12.15625 -22.3125 Z M 20.484375 -5.8125 C 24.535156 -5.8125 26.5625 -7.648438 26.5625 -11.328125 C 26.5625 -15.015625 24.535156 -16.859375 20.484375 -16.859375 L 12.15625 -16.859375 L 12.15625 -5.8125 Z M 20.484375 -5.8125 "/></g></g></g><g fill="#000000" fill-opacity="1"><g transform="translate(87.131218, 336.204495)"><g><path d="M 10.921875 0.53125 C 9.128906 0.53125 7.570312 0.203125 6.25 -0.453125 C 4.925781 -1.117188 3.910156 -2.085938 3.203125 -3.359375 C 2.492188 -4.640625 2.140625 -6.175781 2.140625 -7.96875 C 2.140625 -9.632812 2.492188 -11.03125 3.203125 -12.15625 C 3.910156 -13.28125 5.007812 -14.203125 6.5 -14.921875 C 7.988281 -15.640625 9.9375 -16.191406 12.34375 -16.578125 C 14.019531 -16.847656 15.289062 -17.144531 16.15625 -17.46875 C 17.03125 -17.789062 17.617188 -18.15625 17.921875 -18.5625 C 18.234375 -18.96875 18.390625 -19.484375 18.390625 -20.109375 C 18.390625 -21.003906 18.070312 -21.6875 17.4375 -22.15625 C 16.8125 -22.632812 15.773438 -22.875 14.328125 -22.875 C 12.765625 -22.875 11.28125 -22.523438 9.875 -21.828125 C 8.46875 -21.140625 7.25 -20.226562 6.21875 -19.09375 L 5.71875 -19.09375 L 2.765625 -23.53125 C 4.191406 -25.113281 5.925781 -26.34375 7.96875 -27.21875 C 10.019531 -28.101562 12.253906 -28.546875 14.671875 -28.546875 C 18.378906 -28.546875 21.0625 -27.753906 22.71875 -26.171875 C 24.382812 -24.597656 25.21875 -22.363281 25.21875 -19.46875 L 25.21875 -7.3125 C 25.21875 -6.0625 25.765625 -5.4375 26.859375 -5.4375 C 27.285156 -5.4375 27.703125 -5.507812 28.109375 -5.65625 L 28.46875 -5.5625 L 28.96875 -0.65625 C 28.582031 -0.40625 28.039062 -0.195312 27.34375 -0.03125 C 26.65625 0.125 25.894531 0.203125 25.0625 0.203125 C 23.382812 0.203125 22.078125 -0.117188 21.140625 -0.765625 C 20.203125 -1.410156 19.53125 -2.414062 19.125 -3.78125 L 18.59375 -3.828125 C 17.21875 -0.921875 14.660156 0.53125 10.921875 0.53125 Z M 13.15625 -4.71875 C 14.78125 -4.71875 16.078125 -5.265625 17.046875 -6.359375 C 18.023438 -7.453125 18.515625 -8.972656 18.515625 -10.921875 L 18.515625 -13.765625 L 18.03125 -13.859375 C 17.601562 -13.523438 17.046875 -13.242188 16.359375 -13.015625 C 15.679688 -12.785156 14.695312 -12.5625 13.40625 -12.34375 C 11.882812 -12.082031 10.785156 -11.644531 10.109375 -11.03125 C 9.441406 -10.414062 9.109375 -9.539062 9.109375 -8.40625 C 9.109375 -7.207031 9.460938 -6.289062 10.171875 -5.65625 C 10.890625 -5.03125 11.882812 -4.71875 13.15625 -4.71875 Z M 13.15625 -4.71875 "/></g></g></g><g fill="#000000" fill-opacity="1"><g transform="translate(116.658301, 336.204495)"><g><path d="M 16.328125 0.53125 C 13.617188 0.53125 11.222656 -0.03125 9.140625 -1.15625 C 7.054688 -2.28125 5.429688 -3.929688 4.265625 -6.109375 C 3.097656 -8.296875 2.515625 -10.921875 2.515625 -13.984375 C 2.515625 -17.066406 3.097656 -19.695312 4.265625 -21.875 C 5.429688 -24.0625 7.046875 -25.71875 9.109375 -26.84375 C 11.179688 -27.976562 13.546875 -28.546875 16.203125 -28.546875 C 22.109375 -28.546875 25.890625 -26.398438 27.546875 -22.109375 L 22.71875 -18.65625 L 22.1875 -18.65625 C 21.613281 -19.976562 20.863281 -20.960938 19.9375 -21.609375 C 19.019531 -22.253906 17.773438 -22.578125 16.203125 -22.578125 C 14.171875 -22.578125 12.585938 -21.875 11.453125 -20.46875 C 10.316406 -19.0625 9.75 -16.898438 9.75 -13.984375 C 9.75 -11.109375 10.320312 -8.960938 11.46875 -7.546875 C 12.625 -6.140625 14.242188 -5.4375 16.328125 -5.4375 C 17.847656 -5.4375 19.132812 -5.84375 20.1875 -6.65625 C 21.25 -7.476562 22.007812 -8.660156 22.46875 -10.203125 L 23 -10.265625 L 28 -7.515625 C 27.289062 -5.148438 25.972656 -3.21875 24.046875 -1.71875 C 22.128906 -0.21875 19.554688 0.53125 16.328125 0.53125 Z M 16.328125 0.53125 "/></g></g></g><g fill="#000000" fill-opacity="1"><g transform="translate(145.525278, 336.204495)"><g><path d="M 4.03125 0 L 4.03125 -39.25 L 11.078125 -39.25 L 11.078125 -17.46875 L 11.75 -17.46875 L 19.859375 -28 L 26.984375 -28 L 26.984375 -27.421875 L 17.46875 -15.140625 L 28.0625 -0.640625 L 28.0625 0 L 20.640625 0 L 11.75 -11.8125 L 11.078125 -11.8125 L 11.078125 0 Z M 4.03125 0 "/></g></g></g><g fill="#000000" fill-opacity="1"><g transform="translate(173.630592, 336.204495)"><g><path d="M 14.53125 11.890625 C 9.90625 11.890625 6.488281 11.210938 4.28125 9.859375 C 2.082031 8.503906 0.984375 6.613281 0.984375 4.1875 C 0.984375 2.71875 1.453125 1.507812 2.390625 0.5625 C 3.335938 -0.375 4.691406 -1.003906 6.453125 -1.328125 L 6.453125 -1.859375 C 5.503906 -2.429688 4.820312 -3.066406 4.40625 -3.765625 C 3.988281 -4.472656 3.78125 -5.289062 3.78125 -6.21875 C 3.78125 -8.46875 5.242188 -9.984375 8.171875 -10.765625 L 8.171875 -11.296875 C 6.671875 -12.160156 5.535156 -13.226562 4.765625 -14.5 C 4.003906 -15.78125 3.625 -17.328125 3.625 -19.140625 C 3.625 -21.003906 4.050781 -22.640625 4.90625 -24.046875 C 5.769531 -25.460938 7.023438 -26.566406 8.671875 -27.359375 C 10.316406 -28.148438 12.289062 -28.546875 14.59375 -28.546875 C 16.9375 -28.546875 18.800781 -28.140625 20.1875 -27.328125 C 21.050781 -28.578125 21.550781 -30.019531 21.6875 -31.65625 L 22.21875 -32 L 27.265625 -30.75 C 27.117188 -29.414062 26.726562 -28.296875 26.09375 -27.390625 C 25.46875 -26.484375 24.5 -25.671875 23.1875 -24.953125 L 23.1875 -24.40625 C 24.757812 -23.007812 25.546875 -21.070312 25.546875 -18.59375 C 25.546875 -16.863281 25.113281 -15.3125 24.25 -13.9375 C 23.382812 -12.570312 22.125 -11.488281 20.46875 -10.6875 C 18.820312 -9.894531 16.863281 -9.5 14.59375 -9.5 L 13.53125 -9.515625 C 12.851562 -9.554688 12.378906 -9.578125 12.109375 -9.578125 C 11.460938 -9.578125 10.957031 -9.398438 10.59375 -9.046875 C 10.238281 -8.703125 10.0625 -8.257812 10.0625 -7.71875 C 10.0625 -7.125 10.296875 -6.660156 10.765625 -6.328125 C 11.242188 -6.003906 11.9375 -5.828125 12.84375 -5.796875 L 19.125 -5.5625 C 25.3125 -5.375 28.40625 -2.707031 28.40625 2.4375 C 28.40625 4.25 27.941406 5.859375 27.015625 7.265625 C 26.097656 8.679688 24.609375 9.804688 22.546875 10.640625 C 20.484375 11.472656 17.8125 11.890625 14.53125 11.890625 Z M 14.59375 -14.421875 C 15.945312 -14.421875 17.003906 -14.816406 17.765625 -15.609375 C 18.535156 -16.410156 18.921875 -17.546875 18.921875 -19.015625 C 18.921875 -20.492188 18.535156 -21.625 17.765625 -22.40625 C 17.003906 -23.195312 15.945312 -23.59375 14.59375 -23.59375 C 13.226562 -23.59375 12.171875 -23.195312 11.421875 -22.40625 C 10.679688 -21.625 10.3125 -20.492188 10.3125 -19.015625 C 10.3125 -17.523438 10.679688 -16.382812 11.421875 -15.59375 C 12.171875 -14.8125 13.226562 -14.421875 14.59375 -14.421875 Z M 14.53125 6.78125 C 16.925781 6.78125 18.671875 6.441406 19.765625 5.765625 C 20.859375 5.085938 21.40625 4.207031 21.40625 3.125 C 21.40625 2.238281 21.125 1.585938 20.5625 1.171875 C 20.007812 0.765625 19.125 0.546875 17.90625 0.515625 L 12.359375 0.25 C 12.179688 0.25 12.007812 0.238281 11.84375 0.21875 C 11.6875 0.207031 11.53125 0.203125 11.375 0.203125 C 10.1875 0.203125 9.285156 0.457031 8.671875 0.96875 C 8.054688 1.476562 7.75 2.179688 7.75 3.078125 C 7.75 4.253906 8.3125 5.164062 9.4375 5.8125 C 10.570312 6.457031 12.269531 6.78125 14.53125 6.78125 Z M 14.53125 6.78125 "/></g></g></g><g fill="#000000" fill-opacity="1"><g transform="translate(202.751456, 336.204495)"><g><path d="M 4.03125 0 L 4.03125 -28 L 10.875 -28 L 10.875 -23.84375 L 11.40625 -23.734375 C 12.082031 -25.296875 12.96875 -26.441406 14.0625 -27.171875 C 15.164062 -27.898438 16.503906 -28.265625 18.078125 -28.265625 C 19.671875 -28.265625 20.878906 -27.992188 21.703125 -27.453125 L 20.515625 -21.375 L 19.984375 -21.28125 C 19.523438 -21.46875 19.082031 -21.601562 18.65625 -21.6875 C 18.238281 -21.769531 17.722656 -21.8125 17.109375 -21.8125 C 15.148438 -21.8125 13.65625 -21.117188 12.625 -19.734375 C 11.59375 -18.359375 11.078125 -16.148438 11.078125 -13.109375 L 11.078125 0 Z M 4.03125 0 "/></g></g></g><g fill="#000000" fill-opacity="1"><g transform="translate(224.712701, 336.204495)"><g><path d="M 16.28125 0.53125 C 13.53125 0.53125 11.117188 -0.03125 9.046875 -1.15625 C 6.972656 -2.28125 5.363281 -3.929688 4.21875 -6.109375 C 3.082031 -8.285156 2.515625 -10.910156 2.515625 -13.984375 C 2.515625 -17.066406 3.082031 -19.695312 4.21875 -21.875 C 5.363281 -24.0625 6.972656 -25.71875 9.046875 -26.84375 C 11.117188 -27.976562 13.53125 -28.546875 16.28125 -28.546875 C 19.019531 -28.546875 21.425781 -27.976562 23.5 -26.84375 C 25.570312 -25.71875 27.179688 -24.0625 28.328125 -21.875 C 29.484375 -19.695312 30.0625 -17.066406 30.0625 -13.984375 C 30.0625 -10.910156 29.484375 -8.285156 28.328125 -6.109375 C 27.179688 -3.929688 25.570312 -2.28125 23.5 -1.15625 C 21.425781 -0.03125 19.019531 0.53125 16.28125 0.53125 Z M 16.28125 -5.4375 C 20.625 -5.4375 22.796875 -8.285156 22.796875 -13.984375 C 22.796875 -16.953125 22.238281 -19.125 21.125 -20.5 C 20.007812 -21.882812 18.394531 -22.578125 16.28125 -22.578125 C 11.925781 -22.578125 9.75 -19.710938 9.75 -13.984375 C 9.75 -8.285156 11.925781 -5.4375 16.28125 -5.4375 Z M 16.28125 -5.4375 "/></g></g></g><g fill="#000000" fill-opacity="1"><g transform="translate(257.261035, 336.204495)"><g><path d="M 12.828125 0.53125 C 9.671875 0.53125 7.34375 -0.328125 5.84375 -2.046875 C 4.351562 -3.765625 3.609375 -6.234375 3.609375 -9.453125 L 3.609375 -28 L 10.640625 -28 L 10.640625 -10.328125 C 10.640625 -8.617188 11.003906 -7.367188 11.734375 -6.578125 C 12.472656 -5.796875 13.613281 -5.40625 15.15625 -5.40625 C 17.101562 -5.40625 18.617188 -6.046875 19.703125 -7.328125 C 20.785156 -8.609375 21.328125 -10.617188 21.328125 -13.359375 L 21.328125 -28 L 28.359375 -28 L 28.359375 0 L 21.609375 0 L 21.609375 -4.109375 L 21.078125 -4.234375 C 20.179688 -2.628906 19.082031 -1.429688 17.78125 -0.640625 C 16.488281 0.140625 14.835938 0.53125 12.828125 0.53125 Z M 12.828125 0.53125 "/></g></g></g><g fill="#000000" fill-opacity="1"><g transform="translate(289.657038, 336.204495)"><g><path d="M 4.03125 0 L 4.03125 -28 L 10.796875 -28 L 10.796875 -23.890625 L 11.328125 -23.765625 C 13.066406 -26.953125 15.894531 -28.546875 19.8125 -28.546875 C 23.039062 -28.546875 25.410156 -27.664062 26.921875 -25.90625 C 28.441406 -24.144531 29.203125 -21.578125 29.203125 -18.203125 L 29.203125 0 L 22.171875 0 L 22.171875 -17.34375 C 22.171875 -19.207031 21.796875 -20.546875 21.046875 -21.359375 C 20.304688 -22.179688 19.113281 -22.59375 17.46875 -22.59375 C 15.457031 -22.59375 13.890625 -21.941406 12.765625 -20.640625 C 11.640625 -19.335938 11.078125 -17.289062 11.078125 -14.5 L 11.078125 0 Z M 4.03125 0 "/></g></g></g><g fill="#000000" fill-opacity="1"><g transform="translate(322.45926, 336.204495)"><g><path d="M 13.84375 0.53125 C 11.625 0.53125 9.660156 -0.00390625 7.953125 -1.078125 C 6.253906 -2.148438 4.921875 -3.773438 3.953125 -5.953125 C 2.992188 -8.128906 2.515625 -10.804688 2.515625 -13.984375 C 2.515625 -17.191406 3.007812 -19.878906 4 -22.046875 C 4.988281 -24.222656 6.359375 -25.847656 8.109375 -26.921875 C 9.859375 -28.003906 11.882812 -28.546875 14.1875 -28.546875 C 15.9375 -28.546875 17.445312 -28.242188 18.71875 -27.640625 C 20 -27.035156 21.082031 -26.097656 21.96875 -24.828125 L 22.5 -24.953125 L 22.5 -39.25 L 29.53125 -39.25 L 29.53125 0 L 22.5 0 L 22.5 -3.625 L 21.96875 -3.734375 C 21.1875 -2.410156 20.117188 -1.367188 18.765625 -0.609375 C 17.410156 0.148438 15.769531 0.53125 13.84375 0.53125 Z M 16.125 -5.4375 C 18.101562 -5.4375 19.664062 -6.140625 20.8125 -7.546875 C 21.96875 -8.960938 22.546875 -11.109375 22.546875 -13.984375 C 22.546875 -16.867188 21.96875 -19.019531 20.8125 -20.4375 C 19.664062 -21.863281 18.101562 -22.578125 16.125 -22.578125 C 14.0625 -22.578125 12.484375 -21.882812 11.390625 -20.5 C 10.296875 -19.125 9.75 -16.953125 9.75 -13.984375 C 9.75 -11.046875 10.296875 -8.882812 11.390625 -7.5 C 12.484375 -6.125 14.0625 -5.4375 16.125 -5.4375 Z M 16.125 -5.4375 "/></g></g></g><g fill="#000000" fill-opacity="1"><g transform="translate(356.023154, 336.204495)"><g/></g></g><g fill="#000000" fill-opacity="1"><g transform="translate(368.28591, 336.204495)"><g><path d="M 16.328125 0.53125 C 13.617188 0.53125 11.222656 -0.03125 9.140625 -1.15625 C 7.054688 -2.28125 5.429688 -3.929688 4.265625 -6.109375 C 3.097656 -8.296875 2.515625 -10.921875 2.515625 -13.984375 C 2.515625 -17.066406 3.097656 -19.695312 4.265625 -21.875 C 5.429688 -24.0625 7.046875 -25.71875 9.109375 -26.84375 C 11.179688 -27.976562 13.546875 -28.546875 16.203125 -28.546875 C 22.109375 -28.546875 25.890625 -26.398438 27.546875 -22.109375 L 22.71875 -18.65625 L 22.1875 -18.65625 C 21.613281 -19.976562 20.863281 -20.960938 19.9375 -21.609375 C 19.019531 -22.253906 17.773438 -22.578125 16.203125 -22.578125 C 14.171875 -22.578125 12.585938 -21.875 11.453125 -20.46875 C 10.316406 -19.0625 9.75 -16.898438 9.75 -13.984375 C 9.75 -11.109375 10.320312 -8.960938 11.46875 -7.546875 C 12.625 -6.140625 14.242188 -5.4375 16.328125 -5.4375 C 17.847656 -5.4375 19.132812 -5.84375 20.1875 -6.65625 C 21.25 -7.476562 22.007812 -8.660156 22.46875 -10.203125 L 23 -10.265625 L 28 -7.515625 C 27.289062 -5.148438 25.972656 -3.21875 24.046875 -1.71875 C 22.128906 -0.21875 19.554688 0.53125 16.328125 0.53125 Z M 16.328125 0.53125 "/></g></g></g><g fill="#000000" fill-opacity="1"><g transform="translate(397.152898, 336.204495)"><g><path d="M 16.28125 0.53125 C 13.53125 0.53125 11.117188 -0.03125 9.046875 -1.15625 C 6.972656 -2.28125 5.363281 -3.929688 4.21875 -6.109375 C 3.082031 -8.285156 2.515625 -10.910156 2.515625 -13.984375 C 2.515625 -17.066406 3.082031 -19.695312 4.21875 -21.875 C 5.363281 -24.0625 6.972656 -25.71875 9.046875 -26.84375 C 11.117188 -27.976562 13.53125 -28.546875 16.28125 -28.546875 C 19.019531 -28.546875 21.425781 -27.976562 23.5 -26.84375 C 25.570312 -25.71875 27.179688 -24.0625 28.328125 -21.875 C 29.484375 -19.695312 30.0625 -17.066406 30.0625 -13.984375 C 30.0625 -10.910156 29.484375 -8.285156 28.328125 -6.109375 C 27.179688 -3.929688 25.570312 -2.28125 23.5 -1.15625 C 21.425781 -0.03125 19.019531 0.53125 16.28125 0.53125 Z M 16.28125 -5.4375 C 20.625 -5.4375 22.796875 -8.285156 22.796875 -13.984375 C 22.796875 -16.953125 22.238281 -19.125 21.125 -20.5 C 20.007812 -21.882812 18.394531 -22.578125 16.28125 -22.578125 C 11.925781 -22.578125 9.75 -19.710938 9.75 -13.984375 C 9.75 -8.285156 11.925781 -5.4375 16.28125 -5.4375 Z M 16.28125 -5.4375 "/></g></g></g><g fill="#000000" fill-opacity="1"><g transform="translate(429.701221, 336.204495)"><g><path d="M 11.625 0.53125 C 9.101562 0.53125 7.175781 -0.148438 5.84375 -1.515625 C 4.519531 -2.878906 3.859375 -4.945312 3.859375 -7.71875 L 3.859375 -39.25 L 10.890625 -39.25 L 10.890625 -8 C 10.890625 -6.289062 11.601562 -5.4375 13.03125 -5.4375 C 13.4375 -5.4375 13.867188 -5.503906 14.328125 -5.640625 L 14.671875 -5.53125 L 15.3125 -0.125 C 14.925781 0.0703125 14.410156 0.226562 13.765625 0.34375 C 13.117188 0.46875 12.40625 0.53125 11.625 0.53125 Z M 11.625 0.53125 "/></g></g></g><g fill="#000000" fill-opacity="1"><g transform="translate(445.797655, 336.204495)"><g><path d="M 16.28125 0.53125 C 13.53125 0.53125 11.117188 -0.03125 9.046875 -1.15625 C 6.972656 -2.28125 5.363281 -3.929688 4.21875 -6.109375 C 3.082031 -8.285156 2.515625 -10.910156 2.515625 -13.984375 C 2.515625 -17.066406 3.082031 -19.695312 4.21875 -21.875 C 5.363281 -24.0625 6.972656 -25.71875 9.046875 -26.84375 C 11.117188 -27.976562 13.53125 -28.546875 16.28125 -28.546875 C 19.019531 -28.546875 21.425781 -27.976562 23.5 -26.84375 C 25.570312 -25.71875 27.179688 -24.0625 28.328125 -21.875 C 29.484375 -19.695312 30.0625 -17.066406 30.0625 -13.984375 C 30.0625 -10.910156 29.484375 -8.285156 28.328125 -6.109375 C 27.179688 -3.929688 25.570312 -2.28125 23.5 -1.15625 C 21.425781 -0.03125 19.019531 0.53125 16.28125 0.53125 Z M 16.28125 -5.4375 C 20.625 -5.4375 22.796875 -8.285156 22.796875 -13.984375 C 22.796875 -16.953125 22.238281 -19.125 21.125 -20.5 C 20.007812 -21.882812 18.394531 -22.578125 16.28125 -22.578125 C 11.925781 -22.578125 9.75 -19.710938 9.75 -13.984375 C 9.75 -8.285156 11.925781 -5.4375 16.28125 -5.4375 Z M 16.28125 -5.4375 "/></g></g></g><g fill="#000000" fill-opacity="1"><g transform="translate(478.345978, 336.204495)"><g><path d="M 4.03125 0 L 4.03125 -28 L 10.875 -28 L 10.875 -23.84375 L 11.40625 -23.734375 C 12.082031 -25.296875 12.96875 -26.441406 14.0625 -27.171875 C 15.164062 -27.898438 16.503906 -28.265625 18.078125 -28.265625 C 19.671875 -28.265625 20.878906 -27.992188 21.703125 -27.453125 L 20.515625 -21.375 L 19.984375 -21.28125 C 19.523438 -21.46875 19.082031 -21.601562 18.65625 -21.6875 C 18.238281 -21.769531 17.722656 -21.8125 17.109375 -21.8125 C 15.148438 -21.8125 13.65625 -21.117188 12.625 -19.734375 C 11.59375 -18.359375 11.078125 -16.148438 11.078125 -13.109375 L 11.078125 0 Z M 4.03125 0 "/></g></g></g><g fill="#000000" fill-opacity="1"><g transform="translate(50.825353, 512.052426)"><g><path d="M 18.03125 0.53125 C 14.925781 0.53125 12.242188 -0.171875 9.984375 -1.578125 C 7.734375 -2.992188 5.992188 -5.128906 4.765625 -7.984375 C 3.535156 -10.835938 2.921875 -14.363281 2.921875 -18.5625 C 2.921875 -22.789062 3.65625 -26.332031 5.125 -29.1875 C 6.601562 -32.039062 8.648438 -34.164062 11.265625 -35.5625 C 13.878906 -36.957031 16.910156 -37.65625 20.359375 -37.65625 C 23.921875 -37.65625 26.953125 -36.992188 29.453125 -35.671875 C 31.960938 -34.347656 33.722656 -32.382812 34.734375 -29.78125 L 29.375 -26.53125 L 28.75 -26.5625 C 27.976562 -28.21875 26.90625 -29.425781 25.53125 -30.1875 C 24.15625 -30.945312 22.429688 -31.328125 20.359375 -31.328125 C 17.160156 -31.328125 14.710938 -30.316406 13.015625 -28.296875 C 11.328125 -26.273438 10.484375 -23.03125 10.484375 -18.5625 C 10.484375 -14.070312 11.273438 -10.8125 12.859375 -8.78125 C 14.441406 -6.75 16.78125 -5.734375 19.875 -5.734375 C 22.550781 -5.734375 24.523438 -6.332031 25.796875 -7.53125 C 27.066406 -8.738281 27.703125 -10.535156 27.703125 -12.921875 L 27.703125 -14.53125 L 18.921875 -14.53125 L 18.921875 -20.484375 L 34.984375 -20.484375 L 34.984375 0 L 27.984375 0 L 27.984375 -4.984375 L 27.453125 -5.046875 C 26.691406 -3.273438 25.535156 -1.898438 23.984375 -0.921875 C 22.429688 0.046875 20.445312 0.53125 18.03125 0.53125 Z M 18.03125 0.53125 "/></g></g></g><g fill="#000000" fill-opacity="1"><g transform="translate(89.543152, 512.052426)"><g><path d="M 4.03125 0 L 4.03125 -28 L 10.875 -28 L 10.875 -23.84375 L 11.40625 -23.734375 C 12.082031 -25.296875 12.96875 -26.441406 14.0625 -27.171875 C 15.164062 -27.898438 16.503906 -28.265625 18.078125 -28.265625 C 19.671875 -28.265625 20.878906 -27.992188 21.703125 -27.453125 L 20.515625 -21.375 L 19.984375 -21.28125 C 19.523438 -21.46875 19.082031 -21.601562 18.65625 -21.6875 C 18.238281 -21.769531 17.722656 -21.8125 17.109375 -21.8125 C 15.148438 -21.8125 13.65625 -21.117188 12.625 -19.734375 C 11.59375 -18.359375 11.078125 -16.148438 11.078125 -13.109375 L 11.078125 0 Z M 4.03125 0 "/></g></g></g><g fill="#000000" fill-opacity="1"><g transform="translate(111.504397, 512.052426)"><g><path d="M 10.921875 0.53125 C 9.128906 0.53125 7.570312 0.203125 6.25 -0.453125 C 4.925781 -1.117188 3.910156 -2.085938 3.203125 -3.359375 C 2.492188 -4.640625 2.140625 -6.175781 2.140625 -7.96875 C 2.140625 -9.632812 2.492188 -11.03125 3.203125 -12.15625 C 3.910156 -13.28125 5.007812 -14.203125 6.5 -14.921875 C 7.988281 -15.640625 9.9375 -16.191406 12.34375 -16.578125 C 14.019531 -16.847656 15.289062 -17.144531 16.15625 -17.46875 C 17.03125 -17.789062 17.617188 -18.15625 17.921875 -18.5625 C 18.234375 -18.96875 18.390625 -19.484375 18.390625 -20.109375 C 18.390625 -21.003906 18.070312 -21.6875 17.4375 -22.15625 C 16.8125 -22.632812 15.773438 -22.875 14.328125 -22.875 C 12.765625 -22.875 11.28125 -22.523438 9.875 -21.828125 C 8.46875 -21.140625 7.25 -20.226562 6.21875 -19.09375 L 5.71875 -19.09375 L 2.765625 -23.53125 C 4.191406 -25.113281 5.925781 -26.34375 7.96875 -27.21875 C 10.019531 -28.101562 12.253906 -28.546875 14.671875 -28.546875 C 18.378906 -28.546875 21.0625 -27.753906 22.71875 -26.171875 C 24.382812 -24.597656 25.21875 -22.363281 25.21875 -19.46875 L 25.21875 -7.3125 C 25.21875 -6.0625 25.765625 -5.4375 26.859375 -5.4375 C 27.285156 -5.4375 27.703125 -5.507812 28.109375 -5.65625 L 28.46875 -5.5625 L 28.96875 -0.65625 C 28.582031 -0.40625 28.039062 -0.195312 27.34375 -0.03125 C 26.65625 0.125 25.894531 0.203125 25.0625 0.203125 C 23.382812 0.203125 22.078125 -0.117188 21.140625 -0.765625 C 20.203125 -1.410156 19.53125 -2.414062 19.125 -3.78125 L 18.59375 -3.828125 C 17.21875 -0.921875 14.660156 0.53125 10.921875 0.53125 Z M 13.15625 -4.71875 C 14.78125 -4.71875 16.078125 -5.265625 17.046875 -6.359375 C 18.023438 -7.453125 18.515625 -8.972656 18.515625 -10.921875 L 18.515625 -13.765625 L 18.03125 -13.859375 C 17.601562 -13.523438 17.046875 -13.242188 16.359375 -13.015625 C 15.679688 -12.785156 14.695312 -12.5625 13.40625 -12.34375 C 11.882812 -12.082031 10.785156 -11.644531 10.109375 -11.03125 C 9.441406 -10.414062 9.109375 -9.539062 9.109375 -8.40625 C 9.109375 -7.207031 9.460938 -6.289062 10.171875 -5.65625 C 10.890625 -5.03125 11.882812 -4.71875 13.15625 -4.71875 Z M 13.15625 -4.71875 "/></g></g></g><g fill="#000000" fill-opacity="1"><g transform="translate(141.03148, 512.052426)"><g><path d="M 13.84375 0.53125 C 11.625 0.53125 9.660156 -0.00390625 7.953125 -1.078125 C 6.253906 -2.148438 4.921875 -3.773438 3.953125 -5.953125 C 2.992188 -8.128906 2.515625 -10.804688 2.515625 -13.984375 C 2.515625 -17.191406 3.007812 -19.878906 4 -22.046875 C 4.988281 -24.222656 6.359375 -25.847656 8.109375 -26.921875 C 9.859375 -28.003906 11.882812 -28.546875 14.1875 -28.546875 C 15.9375 -28.546875 17.445312 -28.242188 18.71875 -27.640625 C 20 -27.035156 21.082031 -26.097656 21.96875 -24.828125 L 22.5 -24.953125 L 22.5 -39.25 L 29.53125 -39.25 L 29.53125 0 L 22.5 0 L 22.5 -3.625 L 21.96875 -3.734375 C 21.1875 -2.410156 20.117188 -1.367188 18.765625 -0.609375 C 17.410156 0.148438 15.769531 0.53125 13.84375 0.53125 Z M 16.125 -5.4375 C 18.101562 -5.4375 19.664062 -6.140625 20.8125 -7.546875 C 21.96875 -8.960938 22.546875 -11.109375 22.546875 -13.984375 C 22.546875 -16.867188 21.96875 -19.019531 20.8125 -20.4375 C 19.664062 -21.863281 18.101562 -22.578125 16.125 -22.578125 C 14.0625 -22.578125 12.484375 -21.882812 11.390625 -20.5 C 10.296875 -19.125 9.75 -16.953125 9.75 -13.984375 C 9.75 -11.046875 10.296875 -8.882812 11.390625 -7.5 C 12.484375 -6.125 14.0625 -5.4375 16.125 -5.4375 Z M 16.125 -5.4375 "/></g></g></g><g fill="#000000" fill-opacity="1"><g transform="translate(174.595363, 512.052426)"><g><path d="M 7.546875 -31.359375 C 6.273438 -31.359375 5.238281 -31.742188 4.4375 -32.515625 C 3.644531 -33.285156 3.25 -34.28125 3.25 -35.5 C 3.25 -36.695312 3.644531 -37.679688 4.4375 -38.453125 C 5.238281 -39.222656 6.273438 -39.609375 7.546875 -39.609375 C 8.390625 -39.609375 9.140625 -39.429688 9.796875 -39.078125 C 10.460938 -38.722656 10.976562 -38.234375 11.34375 -37.609375 C 11.707031 -36.992188 11.890625 -36.289062 11.890625 -35.5 C 11.890625 -34.695312 11.707031 -33.984375 11.34375 -33.359375 C 10.976562 -32.734375 10.460938 -32.242188 9.796875 -31.890625 C 9.140625 -31.535156 8.390625 -31.359375 7.546875 -31.359375 Z M 4.03125 0 L 4.03125 -28 L 11.078125 -28 L 11.078125 0 Z M 4.03125 0 "/></g></g></g><g fill="#000000" fill-opacity="1"><g transform="translate(189.67626, 512.052426)"><g><path d="M 27.671875 -12.421875 L 9.671875 -12.421875 C 9.878906 -9.984375 10.570312 -8.207031 11.75 -7.09375 C 12.9375 -5.988281 14.554688 -5.4375 16.609375 -5.4375 C 18.210938 -5.4375 19.515625 -5.734375 20.515625 -6.328125 C 21.515625 -6.929688 22.316406 -7.84375 22.921875 -9.0625 L 23.46875 -9.0625 L 28.140625 -6.0625 C 27.222656 -4.101562 25.84375 -2.515625 24 -1.296875 C 22.15625 -0.078125 19.691406 0.53125 16.609375 0.53125 C 13.710938 0.53125 11.207031 -0.015625 9.09375 -1.109375 C 6.988281 -2.210938 5.363281 -3.851562 4.21875 -6.03125 C 3.082031 -8.207031 2.515625 -10.859375 2.515625 -13.984375 C 2.515625 -17.171875 3.113281 -19.851562 4.3125 -22.03125 C 5.519531 -24.21875 7.144531 -25.847656 9.1875 -26.921875 C 11.238281 -28.003906 13.539062 -28.546875 16.09375 -28.546875 C 20.0625 -28.546875 23.097656 -27.492188 25.203125 -25.390625 C 27.304688 -23.296875 28.359375 -20.21875 28.359375 -16.15625 C 28.359375 -14.675781 28.304688 -13.53125 28.203125 -12.71875 Z M 21.640625 -16.96875 C 21.566406 -19.09375 21.066406 -20.640625 20.140625 -21.609375 C 19.222656 -22.585938 17.875 -23.078125 16.09375 -23.078125 C 12.539062 -23.078125 10.453125 -21.039062 9.828125 -16.96875 Z M 21.640625 -16.96875 "/></g></g></g><g fill="#000000" fill-opacity="1"><g transform="translate(220.117337, 512.052426)"><g><path d="M 4.03125 0 L 4.03125 -28 L 10.796875 -28 L 10.796875 -23.890625 L 11.328125 -23.765625 C 13.066406 -26.953125 15.894531 -28.546875 19.8125 -28.546875 C 23.039062 -28.546875 25.410156 -27.664062 26.921875 -25.90625 C 28.441406 -24.144531 29.203125 -21.578125 29.203125 -18.203125 L 29.203125 0 L 22.171875 0 L 22.171875 -17.34375 C 22.171875 -19.207031 21.796875 -20.546875 21.046875 -21.359375 C 20.304688 -22.179688 19.113281 -22.59375 17.46875 -22.59375 C 15.457031 -22.59375 13.890625 -21.941406 12.765625 -20.640625 C 11.640625 -19.335938 11.078125 -17.289062 11.078125 -14.5 L 11.078125 0 Z M 4.03125 0 "/></g></g></g><g fill="#000000" fill-opacity="1"><g transform="translate(252.919559, 512.052426)"><g><path d="M 19.328125 -6.671875 L 21.15625 -1.46875 C 20.394531 -0.84375 19.4375 -0.351562 18.28125 0 C 17.132812 0.351562 15.832031 0.53125 14.375 0.53125 C 11.34375 0.53125 9.039062 -0.289062 7.46875 -1.9375 C 5.894531 -3.59375 5.109375 -5.992188 5.109375 -9.140625 L 5.109375 -22.453125 L 0.84375 -22.453125 L 0.84375 -28.03125 L 5.109375 -28.03125 L 5.109375 -33.484375 L 12.140625 -34.640625 L 12.140625 -28.03125 L 20.078125 -28.03125 L 20.078125 -22.453125 L 12.140625 -22.453125 L 12.140625 -9.65625 C 12.140625 -8.257812 12.425781 -7.242188 13 -6.609375 C 13.570312 -5.972656 14.410156 -5.65625 15.515625 -5.65625 C 16.765625 -5.65625 17.859375 -5.992188 18.796875 -6.671875 Z M 19.328125 -6.671875 "/></g></g></g><g fill="#000000" fill-opacity="1"><g transform="translate(274.677683, 512.052426)"><g/></g></g><g fill="#000000" fill-opacity="1"><g transform="translate(286.940439, 512.052426)"><g><path d="M 20.28125 0.53125 C 16.863281 0.53125 13.851562 -0.175781 11.25 -1.59375 C 8.644531 -3.019531 6.601562 -5.160156 5.125 -8.015625 C 3.65625 -10.867188 2.921875 -14.382812 2.921875 -18.5625 C 2.921875 -22.738281 3.65625 -26.253906 5.125 -29.109375 C 6.601562 -31.960938 8.644531 -34.097656 11.25 -35.515625 C 13.851562 -36.941406 16.863281 -37.65625 20.28125 -37.65625 C 23.851562 -37.65625 26.890625 -36.957031 29.390625 -35.5625 C 31.890625 -34.164062 33.671875 -32.035156 34.734375 -29.171875 L 29.375 -25.90625 L 28.75 -25.921875 C 27.945312 -27.847656 26.863281 -29.226562 25.5 -30.0625 C 24.144531 -30.90625 22.40625 -31.328125 20.28125 -31.328125 C 17.207031 -31.328125 14.804688 -30.304688 13.078125 -28.265625 C 11.347656 -26.234375 10.484375 -23 10.484375 -18.5625 C 10.484375 -14.144531 11.347656 -10.914062 13.078125 -8.875 C 14.804688 -6.832031 17.207031 -5.8125 20.28125 -5.8125 C 25.113281 -5.8125 28.070312 -8.15625 29.15625 -12.84375 L 29.78125 -12.84375 L 35.1875 -10.03125 C 34.175781 -6.507812 32.441406 -3.867188 29.984375 -2.109375 C 27.535156 -0.347656 24.300781 0.53125 20.28125 0.53125 Z M 20.28125 0.53125 "/></g></g></g><g fill="#000000" fill-opacity="1"><g transform="translate(323.347847, 512.052426)"><g><path d="M 16.28125 0.53125 C 13.53125 0.53125 11.117188 -0.03125 9.046875 -1.15625 C 6.972656 -2.28125 5.363281 -3.929688 4.21875 -6.109375 C 3.082031 -8.285156 2.515625 -10.910156 2.515625 -13.984375 C 2.515625 -17.066406 3.082031 -19.695312 4.21875 -21.875 C 5.363281 -24.0625 6.972656 -25.71875 9.046875 -26.84375 C 11.117188 -27.976562 13.53125 -28.546875 16.28125 -28.546875 C 19.019531 -28.546875 21.425781 -27.976562 23.5 -26.84375 C 25.570312 -25.71875 27.179688 -24.0625 28.328125 -21.875 C 29.484375 -19.695312 30.0625 -17.066406 30.0625 -13.984375 C 30.0625 -10.910156 29.484375 -8.285156 28.328125 -6.109375 C 27.179688 -3.929688 25.570312 -2.28125 23.5 -1.15625 C 21.425781 -0.03125 19.019531 0.53125 16.28125 0.53125 Z M 16.28125 -5.4375 C 20.625 -5.4375 22.796875 -8.285156 22.796875 -13.984375 C 22.796875 -16.953125 22.238281 -19.125 21.125 -20.5 C 20.007812 -21.882812 18.394531 -22.578125 16.28125 -22.578125 C 11.925781 -22.578125 9.75 -19.710938 9.75 -13.984375 C 9.75 -8.285156 11.925781 -5.4375 16.28125 -5.4375 Z M 16.28125 -5.4375 "/></g></g></g><g fill="#000000" fill-opacity="1"><g transform="translate(355.89617, 512.052426)"><g><path d="M 11.625 0.53125 C 9.101562 0.53125 7.175781 -0.148438 5.84375 -1.515625 C 4.519531 -2.878906 3.859375 -4.945312 3.859375 -7.71875 L 3.859375 -39.25 L 10.890625 -39.25 L 10.890625 -8 C 10.890625 -6.289062 11.601562 -5.4375 13.03125 -5.4375 C 13.4375 -5.4375 13.867188 -5.503906 14.328125 -5.640625 L 14.671875 -5.53125 L 15.3125 -0.125 C 14.925781 0.0703125 14.410156 0.226562 13.765625 0.34375 C 13.117188 0.46875 12.40625 0.53125 11.625 0.53125 Z M 11.625 0.53125 "/></g></g></g><g fill="#000000" fill-opacity="1"><g transform="translate(371.992604, 512.052426)"><g><path d="M 16.28125 0.53125 C 13.53125 0.53125 11.117188 -0.03125 9.046875 -1.15625 C 6.972656 -2.28125 5.363281 -3.929688 4.21875 -6.109375 C 3.082031 -8.285156 2.515625 -10.910156 2.515625 -13.984375 C 2.515625 -17.066406 3.082031 -19.695312 4.21875 -21.875 C 5.363281 -24.0625 6.972656 -25.71875 9.046875 -26.84375 C 11.117188 -27.976562 13.53125 -28.546875 16.28125 -28.546875 C 19.019531 -28.546875 21.425781 -27.976562 23.5 -26.84375 C 25.570312 -25.71875 27.179688 -24.0625 28.328125 -21.875 C 29.484375 -19.695312 30.0625 -17.066406 30.0625 -13.984375 C 30.0625 -10.910156 29.484375 -8.285156 28.328125 -6.109375 C 27.179688 -3.929688 25.570312 -2.28125 23.5 -1.15625 C 21.425781 -0.03125 19.019531 0.53125 16.28125 0.53125 Z M 16.28125 -5.4375 C 20.625 -5.4375 22.796875 -8.285156 22.796875 -13.984375 C 22.796875 -16.953125 22.238281 -19.125 21.125 -20.5 C 20.007812 -21.882812 18.394531 -22.578125 16.28125 -22.578125 C 11.925781 -22.578125 9.75 -19.710938 9.75 -13.984375 C 9.75 -8.285156 11.925781 -5.4375 16.28125 -5.4375 Z M 16.28125 -5.4375 "/></g></g></g><g fill="#000000" fill-opacity="1"><g transform="translate(404.540927, 512.052426)"><g><path d="M 4.03125 0 L 4.03125 -28 L 10.875 -28 L 10.875 -23.84375 L 11.40625 -23.734375 C 12.082031 -25.296875 12.96875 -26.441406 14.0625 -27.171875 C 15.164062 -27.898438 16.503906 -28.265625 18.078125 -28.265625 C 19.671875 -28.265625 20.878906 -27.992188 21.703125 -27.453125 L 20.515625 -21.375 L 19.984375 -21.28125 C 19.523438 -21.46875 19.082031 -21.601562 18.65625 -21.6875 C 18.238281 -21.769531 17.722656 -21.8125 17.109375 -21.8125 C 15.148438 -21.8125 13.65625 -21.117188 12.625 -19.734375 C 11.59375 -18.359375 11.078125 -16.148438 11.078125 -13.109375 L 11.078125 0 Z M 4.03125 0 "/></g></g></g><g clip-path="url(#e56e32a7ee)"><path fill="#ff4f63" d="M 582.171875 447.757812 L 825.171875 447.757812 L 825.171875 538.882812 L 582.171875 538.882812 Z M 582.171875 447.757812 " fill-opacity="1" fill-rule="nonzero"/></g><g fill="#ffffff" fill-opacity="1"><g transform="translate(632.702896, 507.009738)"><g><path d="M 24.03125 -19.578125 L 24.03125 -17.03125 L 19.421875 -17.03125 L 18.375 -10.8125 L 22.953125 -10.8125 L 22.953125 -8.28125 L 17.9375 -8.28125 L 16.546875 0 L 13.734375 0 L 15.125 -8.28125 L 8.734375 -8.28125 L 7.34375 0 L 4.53125 0 L 5.921875 -8.28125 L 1.75 -8.28125 L 1.75 -10.8125 L 6.359375 -10.8125 L 7.40625 -17.03125 L 2.8125 -17.03125 L 2.8125 -19.578125 L 7.84375 -19.578125 L 9.234375 -27.84375 L 12.046875 -27.84375 L 10.671875 -19.578125 L 17.03125 -19.578125 L 18.421875 -27.84375 L 21.25 -27.84375 L 19.859375 -19.578125 Z M 9.171875 -10.8125 L 15.5625 -10.8125 L 16.59375 -17.03125 L 10.21875 -17.03125 Z M 9.171875 -10.8125 "/></g></g></g><g fill="#ffffff" fill-opacity="1"><g transform="translate(658.479327, 507.009738)"><g><path d="M 4.6875 0 L 4.6875 -18.46875 L 1.03125 -18.46875 L 1.03125 -21.03125 L 4.6875 -21.03125 C 4.457031 -21.9375 4.34375 -22.800781 4.34375 -23.625 C 4.34375 -24.988281 4.628906 -26.132812 5.203125 -27.0625 C 5.785156 -28 6.585938 -28.695312 7.609375 -29.15625 C 8.640625 -29.613281 9.828125 -29.84375 11.171875 -29.84375 C 13.273438 -29.84375 14.882812 -29.390625 16 -28.484375 L 14.796875 -26.296875 L 14.390625 -26.21875 C 13.566406 -26.882812 12.492188 -27.21875 11.171875 -27.21875 C 9.941406 -27.21875 9.015625 -26.898438 8.390625 -26.265625 C 7.765625 -25.628906 7.453125 -24.726562 7.453125 -23.5625 C 7.453125 -22.832031 7.5625 -21.988281 7.78125 -21.03125 L 14.46875 -21.03125 L 14.46875 -18.46875 L 7.78125 -18.46875 L 7.78125 0 Z M 4.6875 0 "/></g></g></g><g fill="#ffffff" fill-opacity="1"><g transform="translate(673.442603, 507.009738)"><g><path d="M 4.6875 0 L 4.6875 -18.46875 L 1.03125 -18.46875 L 1.03125 -21.03125 L 4.6875 -21.03125 C 4.457031 -21.9375 4.34375 -22.800781 4.34375 -23.625 C 4.34375 -24.988281 4.628906 -26.132812 5.203125 -27.0625 C 5.785156 -28 6.585938 -28.695312 7.609375 -29.15625 C 8.640625 -29.613281 9.828125 -29.84375 11.171875 -29.84375 C 13.273438 -29.84375 14.882812 -29.390625 16 -28.484375 L 14.796875 -26.296875 L 14.390625 -26.21875 C 13.566406 -26.882812 12.492188 -27.21875 11.171875 -27.21875 C 9.941406 -27.21875 9.015625 -26.898438 8.390625 -26.265625 C 7.765625 -25.628906 7.453125 -24.726562 7.453125 -23.5625 C 7.453125 -22.832031 7.5625 -21.988281 7.78125 -21.03125 L 14.46875 -21.03125 L 14.46875 -18.46875 L 7.78125 -18.46875 L 7.78125 0 Z M 4.6875 0 "/></g></g></g><g fill="#ffffff" fill-opacity="1"><g transform="translate(688.405878, 507.009738)"><g><path d="M 17.421875 0 L 14.328125 0 L 14.328125 -6.640625 L 1.28125 -6.640625 L 1.28125 -9.28125 L 13.5625 -27.84375 L 17.421875 -27.84375 L 17.421875 -9.28125 L 22.25 -9.28125 L 22.25 -6.640625 L 17.421875 -6.640625 Z M 5.125 -9.671875 L 5.296875 -9.28125 L 14.328125 -9.28125 L 14.328125 -23.3125 L 13.875 -23.390625 Z M 5.125 -9.671875 "/></g></g></g><g fill="#ffffff" fill-opacity="1"><g transform="translate(711.993031, 507.009738)"><g><path d="M 4.6875 0 L 4.6875 -18.46875 L 1.03125 -18.46875 L 1.03125 -21.03125 L 4.6875 -21.03125 C 4.457031 -21.9375 4.34375 -22.800781 4.34375 -23.625 C 4.34375 -24.988281 4.628906 -26.132812 5.203125 -27.0625 C 5.785156 -28 6.585938 -28.695312 7.609375 -29.15625 C 8.640625 -29.613281 9.828125 -29.84375 11.171875 -29.84375 C 13.273438 -29.84375 14.882812 -29.390625 16 -28.484375 L 14.796875 -26.296875 L 14.390625 -26.21875 C 13.566406 -26.882812 12.492188 -27.21875 11.171875 -27.21875 C 9.941406 -27.21875 9.015625 -26.898438 8.390625 -26.265625 C 7.765625 -25.628906 7.453125 -24.726562 7.453125 -23.5625 C 7.453125 -22.832031 7.5625 -21.988281 7.78125 -21.03125 L 14.46875 -21.03125 L 14.46875 -18.46875 L 7.78125 -18.46875 L 7.78125 0 Z M 4.6875 0 "/></g></g></g><g fill="#ffffff" fill-opacity="1"><g transform="translate(726.956307, 507.009738)"><g><path d="M 13.296875 0.40625 C 11.328125 0.40625 9.5625 -0.0664062 8 -1.015625 C 6.4375 -1.960938 5.1875 -3.503906 4.25 -5.640625 C 3.320312 -7.773438 2.859375 -10.535156 2.859375 -13.921875 C 2.859375 -17.210938 3.320312 -19.925781 4.25 -22.0625 C 5.1875 -24.195312 6.460938 -25.757812 8.078125 -26.75 C 9.691406 -27.738281 11.53125 -28.234375 13.59375 -28.234375 C 17.164062 -28.234375 19.796875 -27.148438 21.484375 -24.984375 L 19.875 -22.828125 L 19.40625 -22.828125 C 18.03125 -24.484375 16.09375 -25.3125 13.59375 -25.3125 C 11.1875 -25.3125 9.347656 -24.398438 8.078125 -22.578125 C 6.804688 -20.753906 6.171875 -17.84375 6.171875 -13.84375 L 6.5625 -13.734375 C 7.332031 -15.304688 8.328125 -16.484375 9.546875 -17.265625 C 10.765625 -18.054688 12.257812 -18.453125 14.03125 -18.453125 C 15.800781 -18.453125 17.328125 -18.078125 18.609375 -17.328125 C 19.898438 -16.578125 20.890625 -15.492188 21.578125 -14.078125 C 22.265625 -12.660156 22.609375 -10.988281 22.609375 -9.0625 C 22.609375 -7.132812 22.222656 -5.457031 21.453125 -4.03125 C 20.691406 -2.613281 19.609375 -1.519531 18.203125 -0.75 C 16.804688 0.0195312 15.171875 0.40625 13.296875 0.40625 Z M 13.296875 -2.546875 C 15.128906 -2.546875 16.566406 -3.101562 17.609375 -4.21875 C 18.648438 -5.34375 19.171875 -6.957031 19.171875 -9.0625 C 19.171875 -11.1875 18.648438 -12.804688 17.609375 -13.921875 C 16.566406 -15.035156 15.128906 -15.59375 13.296875 -15.59375 C 12.035156 -15.59375 10.941406 -15.332031 10.015625 -14.8125 C 9.085938 -14.300781 8.375 -13.554688 7.875 -12.578125 C 7.375 -11.609375 7.125 -10.4375 7.125 -9.0625 C 7.125 -7.707031 7.375 -6.539062 7.875 -5.5625 C 8.375 -4.582031 9.085938 -3.832031 10.015625 -3.3125 C 10.941406 -2.800781 12.035156 -2.546875 13.296875 -2.546875 Z M 13.296875 -2.546875 "/></g></g></g><g fill="#ffffff" fill-opacity="1"><g transform="translate(752.028365, 507.009738)"><g><path d="M 11.03125 0.40625 C 8.320312 0.40625 6.171875 -0.203125 4.578125 -1.421875 C 2.992188 -2.640625 1.96875 -4.332031 1.5 -6.5 L 3.9375 -7.59375 L 4.375 -7.515625 C 4.863281 -5.859375 5.609375 -4.613281 6.609375 -3.78125 C 7.617188 -2.957031 9.09375 -2.546875 11.03125 -2.546875 C 13 -2.546875 14.492188 -2.992188 15.515625 -3.890625 C 16.546875 -4.796875 17.0625 -6.128906 17.0625 -7.890625 C 17.0625 -9.597656 16.535156 -10.898438 15.484375 -11.796875 C 14.441406 -12.703125 12.796875 -13.15625 10.546875 -13.15625 L 7.515625 -13.15625 L 7.515625 -15.859375 L 10.21875 -15.859375 C 11.976562 -15.859375 13.375 -16.289062 14.40625 -17.15625 C 15.4375 -18.03125 15.953125 -19.265625 15.953125 -20.859375 C 15.953125 -22.367188 15.503906 -23.5 14.609375 -24.25 C 13.710938 -25.007812 12.460938 -25.390625 10.859375 -25.390625 C 8.046875 -25.390625 6.046875 -24.269531 4.859375 -22.03125 L 4.421875 -21.953125 L 2.59375 -23.953125 C 3.34375 -25.234375 4.421875 -26.265625 5.828125 -27.046875 C 7.234375 -27.835938 8.910156 -28.234375 10.859375 -28.234375 C 12.628906 -28.234375 14.140625 -27.957031 15.390625 -27.40625 C 16.640625 -26.851562 17.585938 -26.054688 18.234375 -25.015625 C 18.890625 -23.984375 19.21875 -22.742188 19.21875 -21.296875 C 19.21875 -19.921875 18.816406 -18.710938 18.015625 -17.671875 C 17.222656 -16.640625 16.175781 -15.828125 14.875 -15.234375 L 14.875 -14.828125 C 16.71875 -14.390625 18.101562 -13.5625 19.03125 -12.34375 C 19.957031 -11.132812 20.421875 -9.648438 20.421875 -7.890625 C 20.421875 -5.242188 19.628906 -3.195312 18.046875 -1.75 C 16.472656 -0.3125 14.132812 0.40625 11.03125 0.40625 Z M 11.03125 0.40625 "/></g></g></g><g clip-path="url(#9df3b94810)"><path fill="#911bed" d="M 864.175781 447.757812 L 1107.175781 447.757812 L 1107.175781 538.882812 L 864.175781 538.882812 Z M 864.175781 447.757812 " fill-opacity="1" fill-rule="nonzero"/></g><g fill="#ffffff" fill-opacity="1"><g transform="translate(903.256664, 507.009738)"><g><path d="M 24.03125 -19.578125 L 24.03125 -17.03125 L 19.421875 -17.03125 L 18.375 -10.8125 L 22.953125 -10.8125 L 22.953125 -8.28125 L 17.9375 -8.28125 L 16.546875 0 L 13.734375 0 L 15.125 -8.28125 L 8.734375 -8.28125 L 7.34375 0 L 4.53125 0 L 5.921875 -8.28125 L 1.75 -8.28125 L 1.75 -10.8125 L 6.359375 -10.8125 L 7.40625 -17.03125 L 2.8125 -17.03125 L 2.8125 -19.578125 L 7.84375 -19.578125 L 9.234375 -27.84375 L 12.046875 -27.84375 L 10.671875 -19.578125 L 17.03125 -19.578125 L 18.421875 -27.84375 L 21.25 -27.84375 L 19.859375 -19.578125 Z M 9.171875 -10.8125 L 15.5625 -10.8125 L 16.59375 -17.03125 L 10.21875 -17.03125 Z M 9.171875 -10.8125 "/></g></g></g><g fill="#ffffff" fill-opacity="1"><g transform="translate(929.033095, 507.009738)"><g><path d="M 11.765625 0.40625 C 9.359375 0.40625 7.398438 -0.140625 5.890625 -1.234375 C 4.390625 -2.335938 3.4375 -3.847656 3.03125 -5.765625 L 5.453125 -6.875 L 5.890625 -6.796875 C 6.328125 -5.390625 7.003906 -4.328125 7.921875 -3.609375 C 8.847656 -2.898438 10.128906 -2.546875 11.765625 -2.546875 C 14.078125 -2.546875 15.84375 -3.507812 17.0625 -5.4375 C 18.28125 -7.375 18.890625 -10.359375 18.890625 -14.390625 L 18.484375 -14.515625 C 17.710938 -12.921875 16.726562 -11.734375 15.53125 -10.953125 C 14.34375 -10.171875 12.84375 -9.78125 11.03125 -9.78125 C 9.289062 -9.78125 7.773438 -10.15625 6.484375 -10.90625 C 5.191406 -11.664062 4.195312 -12.738281 3.5 -14.125 C 2.8125 -15.507812 2.46875 -17.125 2.46875 -18.96875 C 2.46875 -20.8125 2.847656 -22.429688 3.609375 -23.828125 C 4.378906 -25.234375 5.460938 -26.316406 6.859375 -27.078125 C 8.265625 -27.847656 9.898438 -28.234375 11.765625 -28.234375 C 15.023438 -28.234375 17.578125 -27.132812 19.421875 -24.9375 C 21.273438 -22.738281 22.203125 -19.175781 22.203125 -14.25 C 22.203125 -10.914062 21.765625 -8.15625 20.890625 -5.96875 C 20.015625 -3.789062 18.796875 -2.179688 17.234375 -1.140625 C 15.679688 -0.109375 13.859375 0.40625 11.765625 0.40625 Z M 11.765625 -12.640625 C 13.023438 -12.640625 14.117188 -12.882812 15.046875 -13.375 C 15.972656 -13.875 16.6875 -14.597656 17.1875 -15.546875 C 17.6875 -16.503906 17.9375 -17.644531 17.9375 -18.96875 C 17.9375 -20.289062 17.6875 -21.425781 17.1875 -22.375 C 16.6875 -23.320312 15.972656 -24.046875 15.046875 -24.546875 C 14.117188 -25.054688 13.023438 -25.3125 11.765625 -25.3125 C 9.921875 -25.3125 8.476562 -24.765625 7.4375 -23.671875 C 6.40625 -22.585938 5.890625 -21.019531 5.890625 -18.96875 C 5.890625 -16.90625 6.40625 -15.332031 7.4375 -14.25 C 8.476562 -13.175781 9.921875 -12.640625 11.765625 -12.640625 Z M 11.765625 -12.640625 "/></g></g></g><g fill="#ffffff" fill-opacity="1"><g transform="translate(954.08611, 507.009738)"><g><path d="M 1.984375 0 L 1.984375 -2.703125 L 9.578125 -2.703125 L 9.578125 -24 L 9.140625 -24.109375 C 7.910156 -23.492188 6.832031 -23.023438 5.90625 -22.703125 C 4.976562 -22.378906 3.789062 -22.066406 2.34375 -21.765625 L 2.34375 -24.78125 C 3.78125 -25.082031 5.195312 -25.492188 6.59375 -26.015625 C 8 -26.535156 9.273438 -27.144531 10.421875 -27.84375 L 12.78125 -27.84375 L 12.78125 -2.703125 L 19.578125 -2.703125 L 19.578125 0 Z M 1.984375 0 "/></g></g></g><g fill="#ffffff" fill-opacity="1"><g transform="translate(974.836708, 507.009738)"><g><path d="M 1.984375 0 L 1.984375 -2.703125 L 9.578125 -2.703125 L 9.578125 -24 L 9.140625 -24.109375 C 7.910156 -23.492188 6.832031 -23.023438 5.90625 -22.703125 C 4.976562 -22.378906 3.789062 -22.066406 2.34375 -21.765625 L 2.34375 -24.78125 C 3.78125 -25.082031 5.195312 -25.492188 6.59375 -26.015625 C 8 -26.535156 9.273438 -27.144531 10.421875 -27.84375 L 12.78125 -27.84375 L 12.78125 -2.703125 L 19.578125 -2.703125 L 19.578125 0 Z M 1.984375 0 "/></g></g></g><g fill="#ffffff" fill-opacity="1"><g transform="translate(995.587305, 507.009738)"><g><path d="M 13.953125 0.40625 C 12.390625 0.40625 11.035156 0.101562 9.890625 -0.5 C 8.742188 -1.101562 7.832031 -1.898438 7.15625 -2.890625 L 6.765625 -2.8125 L 6.765625 0 L 3.65625 0 L 3.65625 -29.4375 L 6.765625 -29.4375 L 6.765625 -17.859375 L 7.15625 -17.78125 C 8.757812 -20.195312 11.082031 -21.40625 14.125 -21.40625 C 15.851562 -21.40625 17.363281 -21.003906 18.65625 -20.203125 C 19.957031 -19.398438 20.960938 -18.179688 21.671875 -16.546875 C 22.390625 -14.921875 22.75 -12.90625 22.75 -10.5 C 22.75 -8.101562 22.367188 -6.085938 21.609375 -4.453125 C 20.859375 -2.828125 19.820312 -1.609375 18.5 -0.796875 C 17.1875 0.00390625 15.671875 0.40625 13.953125 0.40625 Z M 13.21875 -2.375 C 17.40625 -2.375 19.5 -5.082031 19.5 -10.5 C 19.5 -13.300781 18.953125 -15.351562 17.859375 -16.65625 C 16.765625 -17.96875 15.21875 -18.625 13.21875 -18.625 C 11.25 -18.625 9.679688 -17.953125 8.515625 -16.609375 C 7.347656 -15.273438 6.765625 -13.238281 6.765625 -10.5 C 6.765625 -7.769531 7.347656 -5.734375 8.515625 -4.390625 C 9.679688 -3.046875 11.25 -2.375 13.21875 -2.375 Z M 13.21875 -2.375 "/></g></g></g><g fill="#ffffff" fill-opacity="1"><g transform="translate(1020.640321, 507.009738)"><g><path d="M 20.015625 -9.78125 L 5.578125 -9.78125 C 5.671875 -7.226562 6.285156 -5.351562 7.421875 -4.15625 C 8.554688 -2.96875 10.113281 -2.375 12.09375 -2.375 C 13.59375 -2.375 14.796875 -2.640625 15.703125 -3.171875 C 16.617188 -3.710938 17.335938 -4.550781 17.859375 -5.6875 L 18.265625 -5.6875 L 20.28125 -4.5 C 19.664062 -2.96875 18.6875 -1.765625 17.34375 -0.890625 C 16.007812 -0.0234375 14.257812 0.40625 12.09375 0.40625 C 10.0625 0.40625 8.316406 0.00390625 6.859375 -0.796875 C 5.398438 -1.597656 4.273438 -2.8125 3.484375 -4.4375 C 2.691406 -6.0625 2.296875 -8.082031 2.296875 -10.5 C 2.296875 -12.882812 2.710938 -14.894531 3.546875 -16.53125 C 4.378906 -18.164062 5.515625 -19.382812 6.953125 -20.1875 C 8.398438 -21 10.050781 -21.40625 11.90625 -21.40625 C 14.59375 -21.40625 16.691406 -20.644531 18.203125 -19.125 C 19.710938 -17.613281 20.472656 -15.363281 20.484375 -12.375 C 20.484375 -11.207031 20.460938 -10.421875 20.421875 -10.015625 Z M 17.421875 -12.375 C 17.367188 -14.613281 16.875 -16.238281 15.9375 -17.25 C 15 -18.269531 13.65625 -18.78125 11.90625 -18.78125 C 10.0625 -18.78125 8.613281 -18.265625 7.5625 -17.234375 C 6.519531 -16.210938 5.882812 -14.59375 5.65625 -12.375 Z M 17.421875 -12.375 "/></g></g></g><g fill="#ffffff" fill-opacity="1"><g transform="translate(1043.028122, 507.009738)"><g><path d="M 10.890625 0.40625 C 9.203125 0.40625 7.710938 0.00390625 6.421875 -0.796875 C 5.140625 -1.609375 4.128906 -2.828125 3.390625 -4.453125 C 2.660156 -6.078125 2.296875 -8.09375 2.296875 -10.5 C 2.296875 -12.894531 2.675781 -14.90625 3.4375 -16.53125 C 4.207031 -18.164062 5.257812 -19.382812 6.59375 -20.1875 C 7.9375 -21 9.488281 -21.40625 11.25 -21.40625 C 12.644531 -21.40625 13.898438 -21.140625 15.015625 -20.609375 C 16.140625 -20.085938 17.101562 -19.222656 17.90625 -18.015625 L 18.296875 -18.09375 L 18.296875 -29.4375 L 21.40625 -29.4375 L 21.40625 0 L 18.296875 0 L 18.296875 -3.0625 L 17.90625 -3.140625 C 17.21875 -2.097656 16.285156 -1.242188 15.109375 -0.578125 C 13.929688 0.078125 12.523438 0.40625 10.890625 0.40625 Z M 11.859375 -2.375 C 13.816406 -2.375 15.378906 -3.046875 16.546875 -4.390625 C 17.710938 -5.734375 18.296875 -7.769531 18.296875 -10.5 C 18.296875 -13.238281 17.710938 -15.273438 16.546875 -16.609375 C 15.378906 -17.953125 13.816406 -18.625 11.859375 -18.625 C 9.847656 -18.625 8.296875 -17.96875 7.203125 -16.65625 C 6.109375 -15.351562 5.5625 -13.300781 5.5625 -10.5 C 5.5625 -5.082031 7.660156 -2.375 11.859375 -2.375 Z M 11.859375 -2.375 "/></g></g></g><g clip-path="url(#70f34f5393)"><path fill="#2e38bf" d="M 1146.175781 447.757812 L 1389.175781 447.757812 L 1389.175781 538.882812 L 1146.175781 538.882812 Z M 1146.175781 447.757812 " fill-opacity="1" fill-rule="nonzero"/></g><g fill="#ffffff" fill-opacity="1"><g transform="translate(1189.803573, 507.009738)"><g><path d="M 24.03125 -19.578125 L 24.03125 -17.03125 L 19.421875 -17.03125 L 18.375 -10.8125 L 22.953125 -10.8125 L 22.953125 -8.28125 L 17.9375 -8.28125 L 16.546875 0 L 13.734375 0 L 15.125 -8.28125 L 8.734375 -8.28125 L 7.34375 0 L 4.53125 0 L 5.921875 -8.28125 L 1.75 -8.28125 L 1.75 -10.8125 L 6.359375 -10.8125 L 7.40625 -17.03125 L 2.8125 -17.03125 L 2.8125 -19.578125 L 7.84375 -19.578125 L 9.234375 -27.84375 L 12.046875 -27.84375 L 10.671875 -19.578125 L 17.03125 -19.578125 L 18.421875 -27.84375 L 21.25 -27.84375 L 19.859375 -19.578125 Z M 9.171875 -10.8125 L 15.5625 -10.8125 L 16.59375 -17.03125 L 10.21875 -17.03125 Z M 9.171875 -10.8125 "/></g></g></g><g fill="#ffffff" fill-opacity="1"><g transform="translate(1215.580003, 507.009738)"><g><path d="M 1.671875 -1.28125 C 1.671875 -2.8125 1.835938 -4.046875 2.171875 -4.984375 C 2.515625 -5.929688 3.09375 -6.8125 3.90625 -7.625 C 4.71875 -8.4375 6.007812 -9.488281 7.78125 -10.78125 L 10.859375 -13 C 11.984375 -13.832031 12.898438 -14.597656 13.609375 -15.296875 C 14.328125 -15.992188 14.890625 -16.75 15.296875 -17.5625 C 15.710938 -18.382812 15.921875 -19.300781 15.921875 -20.3125 C 15.921875 -21.96875 15.484375 -23.210938 14.609375 -24.046875 C 13.734375 -24.890625 12.363281 -25.3125 10.5 -25.3125 C 9.019531 -25.3125 7.707031 -24.96875 6.5625 -24.28125 C 5.425781 -23.59375 4.515625 -22.617188 3.828125 -21.359375 L 3.390625 -21.296875 L 1.421875 -23.34375 C 2.367188 -24.863281 3.601562 -26.054688 5.125 -26.921875 C 6.65625 -27.796875 8.445312 -28.234375 10.5 -28.234375 C 12.476562 -28.234375 14.117188 -27.894531 15.421875 -27.21875 C 16.734375 -26.550781 17.695312 -25.625 18.3125 -24.4375 C 18.9375 -23.25 19.25 -21.875 19.25 -20.3125 C 19.25 -19.070312 18.988281 -17.910156 18.46875 -16.828125 C 17.945312 -15.753906 17.207031 -14.738281 16.25 -13.78125 C 15.300781 -12.832031 14.113281 -11.832031 12.6875 -10.78125 L 9.578125 -8.515625 C 8.421875 -7.660156 7.53125 -6.9375 6.90625 -6.34375 C 6.289062 -5.75 5.835938 -5.164062 5.546875 -4.59375 C 5.265625 -4.03125 5.125 -3.398438 5.125 -2.703125 L 19.25 -2.703125 L 19.25 0 L 1.671875 0 Z M 1.671875 -1.28125 "/></g></g></g><g fill="#ffffff" fill-opacity="1"><g transform="translate(1236.977867, 507.009738)"><g><path d="M 20.015625 -9.78125 L 5.578125 -9.78125 C 5.671875 -7.226562 6.285156 -5.351562 7.421875 -4.15625 C 8.554688 -2.96875 10.113281 -2.375 12.09375 -2.375 C 13.59375 -2.375 14.796875 -2.640625 15.703125 -3.171875 C 16.617188 -3.710938 17.335938 -4.550781 17.859375 -5.6875 L 18.265625 -5.6875 L 20.28125 -4.5 C 19.664062 -2.96875 18.6875 -1.765625 17.34375 -0.890625 C 16.007812 -0.0234375 14.257812 0.40625 12.09375 0.40625 C 10.0625 0.40625 8.316406 0.00390625 6.859375 -0.796875 C 5.398438 -1.597656 4.273438 -2.8125 3.484375 -4.4375 C 2.691406 -6.0625 2.296875 -8.082031 2.296875 -10.5 C 2.296875 -12.882812 2.710938 -14.894531 3.546875 -16.53125 C 4.378906 -18.164062 5.515625 -19.382812 6.953125 -20.1875 C 8.398438 -21 10.050781 -21.40625 11.90625 -21.40625 C 14.59375 -21.40625 16.691406 -20.644531 18.203125 -19.125 C 19.710938 -17.613281 20.472656 -15.363281 20.484375 -12.375 C 20.484375 -11.207031 20.460938 -10.421875 20.421875 -10.015625 Z M 17.421875 -12.375 C 17.367188 -14.613281 16.875 -16.238281 15.9375 -17.25 C 15 -18.269531 13.65625 -18.78125 11.90625 -18.78125 C 10.0625 -18.78125 8.613281 -18.265625 7.5625 -17.234375 C 6.519531 -16.210938 5.882812 -14.59375 5.65625 -12.375 Z M 17.421875 -12.375 "/></g></g></g><g fill="#ffffff" fill-opacity="1"><g transform="translate(1259.365669, 507.009738)"><g><path d="M 11.03125 0.40625 C 8.320312 0.40625 6.171875 -0.203125 4.578125 -1.421875 C 2.992188 -2.640625 1.96875 -4.332031 1.5 -6.5 L 3.9375 -7.59375 L 4.375 -7.515625 C 4.863281 -5.859375 5.609375 -4.613281 6.609375 -3.78125 C 7.617188 -2.957031 9.09375 -2.546875 11.03125 -2.546875 C 13 -2.546875 14.492188 -2.992188 15.515625 -3.890625 C 16.546875 -4.796875 17.0625 -6.128906 17.0625 -7.890625 C 17.0625 -9.597656 16.535156 -10.898438 15.484375 -11.796875 C 14.441406 -12.703125 12.796875 -13.15625 10.546875 -13.15625 L 7.515625 -13.15625 L 7.515625 -15.859375 L 10.21875 -15.859375 C 11.976562 -15.859375 13.375 -16.289062 14.40625 -17.15625 C 15.4375 -18.03125 15.953125 -19.265625 15.953125 -20.859375 C 15.953125 -22.367188 15.503906 -23.5 14.609375 -24.25 C 13.710938 -25.007812 12.460938 -25.390625 10.859375 -25.390625 C 8.046875 -25.390625 6.046875 -24.269531 4.859375 -22.03125 L 4.421875 -21.953125 L 2.59375 -23.953125 C 3.34375 -25.234375 4.421875 -26.265625 5.828125 -27.046875 C 7.234375 -27.835938 8.910156 -28.234375 10.859375 -28.234375 C 12.628906 -28.234375 14.140625 -27.957031 15.390625 -27.40625 C 16.640625 -26.851562 17.585938 -26.054688 18.234375 -25.015625 C 18.890625 -23.984375 19.21875 -22.742188 19.21875 -21.296875 C 19.21875 -19.921875 18.816406 -18.710938 18.015625 -17.671875 C 17.222656 -16.640625 16.175781 -15.828125 14.875 -15.234375 L 14.875 -14.828125 C 16.71875 -14.390625 18.101562 -13.5625 19.03125 -12.34375 C 19.957031 -11.132812 20.421875 -9.648438 20.421875 -7.890625 C 20.421875 -5.242188 19.628906 -3.195312 18.046875 -1.75 C 16.472656 -0.3125 14.132812 0.40625 11.03125 0.40625 Z M 11.03125 0.40625 "/></g></g></g><g fill="#ffffff" fill-opacity="1"><g transform="translate(1281.981917, 507.009738)"><g><path d="M 11.765625 0.40625 C 9.734375 0.40625 8 0.078125 6.5625 -0.578125 C 5.125 -1.234375 4.03125 -2.164062 3.28125 -3.375 C 2.53125 -4.59375 2.15625 -6.023438 2.15625 -7.671875 C 2.15625 -9.441406 2.59375 -10.914062 3.46875 -12.09375 C 4.34375 -13.269531 5.632812 -14.195312 7.34375 -14.875 L 7.34375 -15.265625 C 6.144531 -15.992188 5.21875 -16.835938 4.5625 -17.796875 C 3.90625 -18.753906 3.578125 -19.882812 3.578125 -21.1875 C 3.578125 -22.613281 3.910156 -23.859375 4.578125 -24.921875 C 5.253906 -25.984375 6.210938 -26.800781 7.453125 -27.375 C 8.691406 -27.945312 10.128906 -28.234375 11.765625 -28.234375 C 13.398438 -28.234375 14.835938 -27.945312 16.078125 -27.375 C 17.328125 -26.800781 18.285156 -25.984375 18.953125 -24.921875 C 19.628906 -23.859375 19.96875 -22.613281 19.96875 -21.1875 C 19.96875 -19.882812 19.640625 -18.753906 18.984375 -17.796875 C 18.328125 -16.835938 17.394531 -15.992188 16.1875 -15.265625 L 16.1875 -14.875 C 17.914062 -14.195312 19.21875 -13.269531 20.09375 -12.09375 C 20.96875 -10.914062 21.40625 -9.441406 21.40625 -7.671875 C 21.40625 -6.015625 21.03125 -4.582031 20.28125 -3.375 C 19.53125 -2.164062 18.429688 -1.234375 16.984375 -0.578125 C 15.535156 0.078125 13.796875 0.40625 11.765625 0.40625 Z M 11.765625 -16.15625 C 12.753906 -16.15625 13.625 -16.335938 14.375 -16.703125 C 15.132812 -17.078125 15.726562 -17.617188 16.15625 -18.328125 C 16.582031 -19.035156 16.796875 -19.863281 16.796875 -20.8125 C 16.796875 -21.78125 16.582031 -22.617188 16.15625 -23.328125 C 15.726562 -24.035156 15.132812 -24.578125 14.375 -24.953125 C 13.613281 -25.335938 12.742188 -25.53125 11.765625 -25.53125 C 10.234375 -25.53125 9.015625 -25.109375 8.109375 -24.265625 C 7.210938 -23.421875 6.765625 -22.269531 6.765625 -20.8125 C 6.765625 -19.363281 7.210938 -18.222656 8.109375 -17.390625 C 9.015625 -16.566406 10.234375 -16.15625 11.765625 -16.15625 Z M 11.765625 -2.46875 C 13.773438 -2.46875 15.3125 -2.941406 16.375 -3.890625 C 17.445312 -4.847656 17.984375 -6.179688 17.984375 -7.890625 C 17.984375 -9.578125 17.445312 -10.898438 16.375 -11.859375 C 15.3125 -12.816406 13.773438 -13.296875 11.765625 -13.296875 C 9.765625 -13.296875 8.226562 -12.816406 7.15625 -11.859375 C 6.09375 -10.898438 5.5625 -9.578125 5.5625 -7.890625 C 5.5625 -6.179688 6.09375 -4.847656 7.15625 -3.890625 C 8.226562 -2.941406 9.765625 -2.46875 11.765625 -2.46875 Z M 11.765625 -2.46875 "/></g></g></g><g fill="#ffffff" fill-opacity="1"><g transform="translate(1305.530995, 507.009738)"><g><path d="M 13.953125 0.40625 C 12.390625 0.40625 11.035156 0.101562 9.890625 -0.5 C 8.742188 -1.101562 7.832031 -1.898438 7.15625 -2.890625 L 6.765625 -2.8125 L 6.765625 0 L 3.65625 0 L 3.65625 -29.4375 L 6.765625 -29.4375 L 6.765625 -17.859375 L 7.15625 -17.78125 C 8.757812 -20.195312 11.082031 -21.40625 14.125 -21.40625 C 15.851562 -21.40625 17.363281 -21.003906 18.65625 -20.203125 C 19.957031 -19.398438 20.960938 -18.179688 21.671875 -16.546875 C 22.390625 -14.921875 22.75 -12.90625 22.75 -10.5 C 22.75 -8.101562 22.367188 -6.085938 21.609375 -4.453125 C 20.859375 -2.828125 19.820312 -1.609375 18.5 -0.796875 C 17.1875 0.00390625 15.671875 0.40625 13.953125 0.40625 Z M 13.21875 -2.375 C 17.40625 -2.375 19.5 -5.082031 19.5 -10.5 C 19.5 -13.300781 18.953125 -15.351562 17.859375 -16.65625 C 16.765625 -17.96875 15.21875 -18.625 13.21875 -18.625 C 11.25 -18.625 9.679688 -17.953125 8.515625 -16.609375 C 7.347656 -15.273438 6.765625 -13.238281 6.765625 -10.5 C 6.765625 -7.769531 7.347656 -5.734375 8.515625 -4.390625 C 9.679688 -3.046875 11.25 -2.375 13.21875 -2.375 Z M 13.21875 -2.375 "/></g></g></g><g fill="#ffffff" fill-opacity="1"><g transform="translate(1330.584011, 507.009738)"><g><path d="M 4.6875 0 L 4.6875 -18.46875 L 1.03125 -18.46875 L 1.03125 -21.03125 L 4.6875 -21.03125 C 4.457031 -21.9375 4.34375 -22.800781 4.34375 -23.625 C 4.34375 -24.988281 4.628906 -26.132812 5.203125 -27.0625 C 5.785156 -28 6.585938 -28.695312 7.609375 -29.15625 C 8.640625 -29.613281 9.828125 -29.84375 11.171875 -29.84375 C 13.273438 -29.84375 14.882812 -29.390625 16 -28.484375 L 14.796875 -26.296875 L 14.390625 -26.21875 C 13.566406 -26.882812 12.492188 -27.21875 11.171875 -27.21875 C 9.941406 -27.21875 9.015625 -26.898438 8.390625 -26.265625 C 7.765625 -25.628906 7.453125 -24.726562 7.453125 -23.5625 C 7.453125 -22.832031 7.5625 -21.988281 7.78125 -21.03125 L 14.46875 -21.03125 L 14.46875 -18.46875 L 7.78125 -18.46875 L 7.78125 0 Z M 4.6875 0 "/></g></g></g></svg>