<svg version="1.1" id="Layer_1" xmlns="http://www.w3.org/2000/svg" xmlns:xlink="http://www.w3.org/1999/xlink" x="0px" y="0px" width="130px" height="42px" viewBox="0 0 152 40" enable-background="new 0 0 152 40" xml:space="preserve">
    <path fill="#008870" d="M0,22c0-1.1,0.2-2.1,0.6-3.1c0.4-1,0.9-1.8,1.6-2.5c0.7-0.7,1.5-1.2,2.4-1.6c0.9-0.4,1.9-0.6,2.9-0.6
            c0.8,0,1.5,0.1,2.1,0.3c0.6,0.2,1.1,0.4,1.5,0.7c0.4,0.3,0.7,0.5,0.9,0.7c0.2,0.2,0.3,0.4,0.4,0.4c0-0.3,0-0.5,0.1-0.8
            c0-0.3,0.1-0.6,0.1-0.9h3.2v13.9c0,1.2-0.2,2.3-0.6,3.3c-0.4,1-0.9,1.8-1.6,2.4c-0.7,0.7-1.5,1.2-2.5,1.5s-2,0.5-3.2,0.5
            c-0.9,0-1.7-0.1-2.4-0.3c-0.7-0.2-1.3-0.4-1.8-0.7c-0.5-0.3-1-0.6-1.5-1c-0.4-0.4-0.9-0.7-1.3-1.1l2.1-2.2
            c0.6,0.6,1.3,1.1,2.1,1.5c0.7,0.4,1.6,0.6,2.7,0.6c1.4,0,2.6-0.3,3.4-1c0.8-0.7,1.3-1.7,1.3-2.9c0-0.1,0-0.2,0-0.4
            c0-0.1,0-0.3,0-0.5c0-0.2,0-0.4,0.1-0.6c0-0.2,0.1-0.3,0.1-0.4c-0.2,0.2-0.5,0.5-0.7,0.8s-0.6,0.5-1,0.8c-0.4,0.2-0.9,0.4-1.4,0.6
            c-0.5,0.2-1.1,0.2-1.8,0.2c-1.1,0-2.1-0.2-3-0.6c-0.9-0.4-1.7-0.9-2.4-1.6c-0.7-0.7-1.2-1.5-1.5-2.4C0.2,24.1,0,23.1,0,22z
            M3.3,21.9c0,0.6,0.1,1.2,0.3,1.8c0.2,0.6,0.5,1,0.9,1.4C4.9,25.5,5.4,25.8,6,26c0.6,0.2,1.2,0.3,1.8,0.3s1.3-0.1,1.8-0.3
            c0.6-0.2,1-0.6,1.4-1c0.4-0.4,0.7-0.9,0.9-1.4c0.2-0.6,0.3-1.1,0.3-1.8c0-0.6-0.1-1.2-0.3-1.7c-0.2-0.5-0.5-1-0.9-1.4
            s-0.9-0.7-1.4-0.9c-0.6-0.2-1.2-0.3-1.8-0.3S6.5,17.6,6,17.8c-0.5,0.2-1,0.5-1.4,0.9c-0.4,0.4-0.7,0.9-0.9,1.4
            C3.4,20.7,3.3,21.2,3.3,21.9z"></path>
    <path fill="#008870" d="M32.3,27.5c-0.7,0.6-1.6,1.1-2.6,1.5c-1,0.4-2,0.6-3.1,0.6c-1.1,0-2.1-0.2-3-0.6c-1-0.4-1.8-1-2.5-1.7
            c-0.7-0.7-1.3-1.5-1.7-2.4c-0.4-0.9-0.6-1.9-0.6-3c0-1.1,0.2-2,0.6-3c0.4-0.9,1-1.7,1.7-2.4c0.7-0.7,1.5-1.2,2.4-1.7
            c0.9-0.4,1.9-0.6,2.9-0.6c1.7,0,3.1,0.5,4.4,1.5c1.2,1,2.1,2.3,2.7,3.9c-0.7,0.3-1.5,0.6-2.4,0.9c-0.9,0.4-1.9,0.7-2.8,1.1
            c-1,0.4-2,0.8-3,1.2c-1,0.4-1.9,0.8-2.7,1.1c0.4,0.7,0.9,1.3,1.6,1.7c0.7,0.4,1.5,0.7,2.3,0.7c0.6,0,1.2-0.1,1.8-0.3
            c0.6-0.2,1.1-0.5,1.5-0.9L32.3,27.5z M29.4,18.9c-0.3-0.5-0.7-0.9-1.2-1.1c-0.6-0.2-1.1-0.4-1.6-0.4c-0.6,0-1.2,0.1-1.8,0.4
            c-0.6,0.2-1,0.6-1.4,1c-0.4,0.4-0.7,0.9-0.9,1.4c-0.2,0.5-0.3,1-0.3,1.6v0.1c0.6-0.2,1.2-0.5,1.8-0.7c0.7-0.3,1.3-0.5,2-0.8
            c0.7-0.3,1.3-0.5,1.9-0.8C28.4,19.3,28.9,19.1,29.4,18.9z"></path>
    <path fill="#008870" d="M48.6,27.5C47.9,28.2,47,28.7,46,29c-1,0.4-2,0.6-3.1,0.6c-1.1,0-2.1-0.2-3-0.6c-1-0.4-1.8-1-2.5-1.7
            c-0.7-0.7-1.3-1.5-1.7-2.4s-0.6-1.9-0.6-3c0-1.1,0.2-2,0.6-3c0.4-0.9,1-1.7,1.7-2.4c0.7-0.7,1.5-1.2,2.4-1.7
            c0.9-0.4,1.9-0.6,2.9-0.6c1.7,0,3.1,0.5,4.4,1.5c1.2,1,2.1,2.3,2.7,3.9c-0.7,0.3-1.5,0.6-2.4,0.9c-0.9,0.4-1.9,0.7-2.8,1.1
            c-1,0.4-2,0.8-3,1.2c-1,0.4-1.9,0.8-2.7,1.1c0.4,0.7,0.9,1.3,1.6,1.7c0.7,0.4,1.5,0.7,2.3,0.7c0.6,0,1.2-0.1,1.8-0.3
            c0.6-0.2,1.1-0.5,1.5-0.9L48.6,27.5z M45.7,18.9c-0.3-0.5-0.7-0.9-1.2-1.1c-0.6-0.2-1.1-0.4-1.6-0.4c-0.6,0-1.2,0.1-1.8,0.4
            c-0.6,0.2-1,0.6-1.4,1c-0.4,0.4-0.7,0.9-0.9,1.4c-0.2,0.5-0.3,1-0.3,1.6v0.1c0.6-0.2,1.2-0.5,1.8-0.7c0.7-0.3,1.3-0.5,2-0.8
            c0.7-0.3,1.3-0.5,1.9-0.8C44.7,19.3,45.2,19.1,45.7,18.9z"></path>
    <path fill="#008870" d="M62.9,14.2l2,1.9c-0.9,0.8-1.7,1.6-2.5,2.4c-0.8,0.8-1.6,1.6-2.5,2.4c1,1.4,2,2.8,3,4.2c1,1.4,2,2.8,3,4.2
            h-3.8c-0.8-1-1.5-2.1-2.3-3.1c-0.8-1-1.5-2-2.3-3.1l-1.9,1.7v4.4h-3.3V2.3h3.3V21c1.2-1.2,2.4-2.3,3.6-3.4
            C60.4,16.5,61.6,15.4,62.9,14.2z"></path>
    <path fill="#008870" d="M76.4,15.9c-0.1,0.2-0.3,0.4-0.5,0.7c-0.2,0.3-0.4,0.5-0.6,0.7c-0.2,0.2-0.4,0.5-0.7,0.9
            c-0.2-0.2-0.5-0.3-0.7-0.4c-0.2-0.1-0.5-0.2-0.8-0.3c-0.3-0.1-0.6-0.1-0.9-0.1c-0.3,0-0.7,0.1-1,0.2c-0.4,0.1-0.5,0.5-0.5,0.9
            c0,0.4,0.2,0.7,0.5,1c0.3,0.3,0.7,0.5,1.1,0.7c0.4,0.2,0.9,0.4,1.5,0.7c0.5,0.2,1,0.5,1.5,0.9c0.4,0.3,0.8,0.8,1.1,1.3
            c0.3,0.5,0.5,1.2,0.5,1.9c0,0.7-0.1,1.3-0.4,1.8c-0.2,0.5-0.6,1-1,1.4c-0.4,0.4-1,0.7-1.6,0.9c-0.6,0.2-1.3,0.3-2.1,0.3
            c-0.9,0-1.9-0.2-2.7-0.5c-0.9-0.3-1.6-0.8-2.1-1.4c0.2-0.2,0.4-0.4,0.6-0.7c0.2-0.3,0.4-0.5,0.7-0.8c0.2-0.3,0.5-0.5,0.8-0.9
            c0,0,0.1,0,0.2,0.1c0.2,0.1,0.4,0.2,0.6,0.4c0.3,0.1,0.5,0.3,0.9,0.4c0.3,0.1,0.7,0.2,1.1,0.2c0.6,0,1-0.1,1.3-0.4
            c0.3-0.3,0.5-0.6,0.5-0.9c0-0.4-0.2-0.7-0.5-0.9c-0.3-0.2-0.7-0.4-1.1-0.6c-0.4-0.2-0.9-0.4-1.5-0.6c-0.5-0.2-1-0.5-1.5-0.9
            c-0.4-0.3-0.8-0.8-1.1-1.3c-0.3-0.5-0.5-1.2-0.5-2c0-0.8,0.1-1.5,0.4-2.1c0.3-0.5,0.7-1,1.2-1.3c0.5-0.3,1-0.6,1.5-0.7
            c0.5-0.1,1.1-0.2,1.6-0.2c0.7,0,1.4,0.1,2.2,0.4C75.2,15,75.9,15.4,76.4,15.9z"></path>
    <path fill="#008870" d="M80.1,14.6h2.9c0,0.4,0,0.8,0.1,1.1c0,0.3,0,0.6,0.1,0.9c0,0.3,0,0.6,0.1,0.8c0,0.3,0,0.6,0.1,0.9
            c0.5-1.2,1.2-2.2,2.1-3c0.8-0.7,2-1.1,3.5-1.2c1.4,0,2.6,0.4,3.5,1.1c0.9,0.7,1.4,1.7,1.5,2.8c0.3-0.6,0.6-1.1,0.9-1.6
            c0.3-0.5,0.7-0.9,1.2-1.2c0.4-0.3,0.9-0.6,1.5-0.8s1.2-0.3,1.9-0.3c1.5,0,2.7,0.4,3.6,1.2s1.4,1.9,1.4,3.2v10.6h-3.3v-9.1
            c0-0.7-0.3-1.3-0.7-1.8c-0.4-0.5-1.2-0.8-2.2-0.8c-1.4,0-2.4,0.4-3.1,1.3c-0.7,0.9-1.1,2-1.1,3.4v7h-3.3v-9.1
            c0-0.7-0.3-1.3-0.7-1.8c-0.4-0.5-1.2-0.8-2.2-0.8c-1.4,0-2.4,0.4-3.1,1.3c-0.7,0.9-1.1,2-1.1,3.4v7.1h-3.3V14.6z"></path>
    <path fill="#008870" d="M107.4,22.1c0-1.1,0.2-2.1,0.6-3c0.4-1,1-1.8,1.7-2.5s1.5-1.3,2.4-1.7c0.9-0.4,1.9-0.6,2.9-0.6
            c0.7,0,1.3,0.1,1.9,0.3c0.6,0.2,1,0.4,1.4,0.6c0.4,0.2,0.7,0.5,0.9,0.7s0.4,0.4,0.4,0.6l0.1-1.8h3.2v14.6h-3.3v-1
            c0-0.1,0-0.2,0-0.3c0-0.1,0-0.2,0-0.2c-0.1,0.1-0.3,0.3-0.5,0.5c-0.2,0.2-0.5,0.4-0.9,0.6c-0.4,0.2-0.9,0.4-1.4,0.5
            c-0.5,0.2-1.2,0.2-1.9,0.2c-1.1,0-2.2-0.2-3.1-0.6c-0.9-0.4-1.8-1-2.4-1.7c-0.7-0.7-1.2-1.5-1.6-2.4
            C107.6,24,107.4,23.1,107.4,22.1z M110.7,21.9c0,0.6,0.1,1.2,0.3,1.8c0.2,0.6,0.5,1,0.9,1.4c0.4,0.4,0.9,0.7,1.4,0.9
            c0.6,0.2,1.2,0.3,1.8,0.3c0.7,0,1.3-0.1,1.8-0.3c0.6-0.2,1-0.6,1.4-1c0.4-0.4,0.7-0.9,0.9-1.4c0.2-0.6,0.3-1.1,0.3-1.8
            c0-0.6-0.1-1.2-0.3-1.7c-0.2-0.5-0.5-1-0.9-1.4c-0.4-0.4-0.9-0.7-1.4-0.9c-0.6-0.2-1.2-0.3-1.8-0.3c-0.7,0-1.3,0.1-1.8,0.3
            c-0.5,0.2-1,0.5-1.4,0.9c-0.4,0.4-0.7,0.9-0.9,1.4C110.8,20.7,110.7,21.2,110.7,21.9z"></path>
    <path fill="#008870" d="M128.5,8.2h3.3v6.4h3.8v3h-3.8v11.7h-3.3V17.5H126v-3h2.5V8.2z"></path>
    <path fill="#008870" d="M150.6,27.5c-0.7,0.6-1.6,1.1-2.6,1.5c-1,0.4-2,0.6-3.1,0.6c-1.1,0-2.1-0.2-3-0.6c-1-0.4-1.8-1-2.5-1.7
			c-0.7-0.7-1.3-1.5-1.7-2.4c-0.4-0.9-0.6-1.9-0.6-3c0-1.1,0.2-2,0.6-3c0.4-0.9,1-1.7,1.7-2.4c0.7-0.7,1.5-1.2,2.4-1.7
			c0.9-0.4,1.9-0.6,2.9-0.6c1.7,0,3.1,0.5,4.4,1.5c1.2,1,2.1,2.3,2.7,3.9c-0.7,0.3-1.5,0.6-2.4,0.9c-0.9,0.4-1.9,0.7-2.8,1.1
			c-1,0.4-2,0.8-3,1.2c-1,0.4-1.9,0.8-2.7,1.1c0.4,0.7,0.9,1.3,1.6,1.7c0.7,0.4,1.5,0.7,2.3,0.7c0.6,0,1.2-0.1,1.8-0.3
			c0.6-0.2,1.1-0.5,1.5-0.9L150.6,27.5z M147.7,18.9c-0.3-0.5-0.7-0.9-1.2-1.1c-0.6-0.2-1.1-0.4-1.6-0.4c-0.6,0-1.2,0.1-1.8,0.4
			c-0.5,0.2-1,0.6-1.4,1c-0.4,0.4-0.7,0.9-0.9,1.4c-0.2,0.5-0.3,1-0.3,1.6v0.1c0.6-0.2,1.2-0.5,1.8-0.7c0.7-0.3,1.3-0.5,2-0.8
			c0.7-0.3,1.3-0.5,1.9-0.8C146.7,19.3,147.2,19.1,147.7,18.9z"></path>

</svg>